
<!-- 
	/////////////////////////////////////////
	/////////// COMO USAR EN HTML /////////// 
	/////////////////////////////////////////
	--><!-- 

	Ajustar desde aquí el tamaño del icono, y el href a la ruta del icono que se quiera usar
	(ELIMINAR EL WIDTH Y HEIGHT DEL SVG PARA QUE SE AJUSTE AL CONTENEDOR PADRE Y 
	SOLO CAMBIARLO DESDE EL HTML O DONDE SE INCLUYA EL ICONO)

	
	<svg width="full" height="full"> 
        <use href="/Portafolio-FranlyAlvarezVarona/icons.svg#icon-figma" />
    </svg>

	-->


<svg xmlns="http://www.w3.org/2000/svg">

	<!-- 
	/////////////////////////////////////////
	///// SVG de uso banderas de países ///// 
	/////////////////////////////////////////
	-->

	<!-- Bandera de España -->
	<symbol id="icon-espana" viewBox="0 0 496 496">
		<path style="fill:#D32030;"
			d="M0,304.8v64.8c0,27.2,21.6,48.8,48,48.8h400c26.4,0,48-21.6,48-48.8v-64.8H0z" />
		<path style="fill:#C11025;" d="M448,418.4c26.4,0,48-21.6,48-48.8v-64.8H315.2L448,418.4z" />
		<path style="fill:#D32030;"
			d="M448,77.6H48c-26.4,0-48,21.6-48,48.8v64.8h496v-64.8C496,99.2,474.4,77.6,448,77.6z" />
		<path style="fill:#C11025;"
			d="M448,77.6H48l132.8,113.6H496v-64.8C496,99.2,474.4,77.6,448,77.6z" />
		<path style="fill:#A5001C;"
			d="M448,77.6H48l370.4,113.6H496v-64.8C496,99.2,474.4,77.6,448,77.6z" />
		<polygon style="fill:#FFD034;"
			points="0,140.8 0,189.6 0,191.2 0,304.8 0,306.4 0,355.2 496,355.2 496,306.4 496,304.8 496,191.2 
	496,189.6 496,140.8 " />
		<polygon style="fill:#FFBC00;"
			points="180,189.6 180,189.6 316,306.4 373.6,355.2 496,355.2 496,306.4 496,304.8 496,191.2 
	496,189.6 496,140.8 122.4,140.8 " />
		<polygon style="fill:#FFAA00;"
			points="255.2,140.8 414.4,189.6 414.4,189.6 496,214.4 496,191.2 496,189.6 496,140.8 " />
		<g>
			<path style="fill:#A5001C;"
				d="M496,369.6c0,27.2-21.6,48.8-48,48.8H48c-26.4,0-48-21.6-48-48.8" />
			<path style="fill:#A5001C;"
				d="M69.6,244.8v33.6c0,16.8,13.6,30.4,30.4,30.4s30.4-13.6,30.4-30.4v-33.6L69.6,244.8L69.6,244.8z" />
			<rect x="137.6" y="249.6" style="fill:#A5001C;" width="9.6" height="46.4" />
			<path style="fill:#A5001C;"
				d="M151.2,301.6c-0.8-0.8-1.6-0.8-3.2-0.8c-0.8,0-2.4,0-3.2,0.8s-1.6,0.8-3.2,0.8c-0.8,0-2.4,0-3.2-0.8
		c-0.8,0-1.6-0.8-3.2-0.8s-2.4,0-3.2,0.8s-1.6,0.8-3.2,0.8v1.6c0.8,0,2.4,0,3.2-0.8c0.8,0,1.6-0.8,3.2-0.8s2.4,0,3.2,0.8
		s1.6,0.8,3.2,0.8c0.8,0,2.4,0,3.2-0.8c0.8,0,1.6-0.8,3.2-0.8c0.8,0,2.4,0,3.2,0.8s2.4,0.8,3.2,0.8v-1.6
		C153.6,302.4,152,302.4,151.2,301.6z" />
			<path style="fill:#A5001C;"
				d="M148.8,304.8c-0.8,0-2.4,0-3.2,0.8s-1.6,0.8-3.2,0.8c-0.8,0-2.4,0-3.2-0.8c-0.8,0-1.6-0.8-3.2-0.8
		s-2.4,0-3.2,0.8s-1.6,0.8-3.2,0.8v1.6c0.8,0,2.4,0,3.2-0.8c0.8,0,1.6-0.8,3.2-0.8s2.4,0,3.2,0.8s1.6,0.8,3.2,0.8
		c0.8,0,2.4,0,3.2-0.8c0.8,0,1.6-0.8,3.2-0.8c0.8,0,2.4,0,3.2,0.8s1.6,0.8,3.2,0.8v-1.6c-0.8,0-2.4,0-3.2-0.8
		C150.4,304.8,149.6,304.8,148.8,304.8z" />
			<path style="fill:#A5001C;"
				d="M148.8,308c-0.8,0-2.4,0-3.2,0.8s-1.6,0.8-3.2,0.8c-0.8,0-2.4,0-3.2-0.8c-0.8,0-1.6-0.8-3.2-0.8
		s-2.4,0-3.2,0.8s-1.6,0.8-3.2,0.8v1.6c0.8,0,2.4,0,3.2-0.8c0.8,0,1.6-0.8,3.2-0.8s2.4,0,3.2,0.8s1.6,0.8,3.2,0.8
		c0.8,0,2.4,0,3.2-0.8c0.8,0,1.6-0.8,3.2-0.8c0.8,0,2.4,0,3.2,0.8s1.6,0.8,3.2,0.8v-1.6c-0.8,0-2.4,0-3.2-0.8
		C150.4,308.8,149.6,308,148.8,308z" />
			<path style="fill:#A5001C;"
				d="M148.8,296.8c0,0.8-0.8,1.6-1.6,1.6h-10.4c-0.8,0-1.6-0.8-1.6-1.6l0,0c0-0.8,0.8-1.6,1.6-1.6h10.4
		C148,295.2,148.8,296,148.8,296.8L148.8,296.8z" />
			<path style="fill:#A5001C;"
				d="M148.8,248.8c0,0.8-0.8,1.6-1.6,1.6h-10.4c-0.8,0-1.6-0.8-1.6-1.6l0,0c0-0.8,0.8-1.6,1.6-1.6h10.4
		C148,248,148.8,248,148.8,248.8L148.8,248.8z" />
		</g>
		<g>
			<rect x="53.6" y="249.6" style="fill:#D32030;" width="9.6" height="46.4" />
			<path style="fill:#D32030;"
				d="M67.2,301.6c-0.8-0.8-1.6-0.8-3.2-0.8c-0.8,0-2.4,0-3.2,0.8c-0.8,0.8-1.6,0.8-3.2,0.8
		c-0.8,0-2.4,0-3.2-0.8c-0.8,0-1.6-0.8-3.2-0.8c-0.8,0-2.4,0-3.2,0.8s-1.6,0.8-3.2,0.8v1.6c0.8,0,2.4,0,3.2-0.8
		c0.8,0,1.6-0.8,3.2-0.8c0.8,0,2.4,0,3.2,0.8c1.6,0.8,2.4,0.8,4,0.8c0.8,0,2.4,0,3.2-0.8c0.8,0,1.6-0.8,3.2-0.8c0.8,0,2.4,0,3.2,0.8
		c0,0.8,0.8,0.8,2.4,0.8v-1.6C68.8,302.4,68,302.4,67.2,301.6z" />
			<path style="fill:#D32030;"
				d="M64,304.8c-0.8,0-2.4,0-3.2,0.8c-0.8,0.8-1.6,0.8-3.2,0.8c-0.8,0-2.4,0-3.2-0.8
		c-0.8,0-1.6-0.8-3.2-0.8c-0.8,0-2.4,0-3.2,0.8s-1.6,0.8-3.2,0.8v1.6c0.8,0,2.4,0,3.2-0.8c0.8,0,1.6-0.8,3.2-0.8
		c0.8,0,2.4,0,3.2,0.8s1.6,0.8,3.2,0.8c0.8,0,2.4,0,3.2-0.8c0.8,0,1.6-0.8,3.2-0.8c0.8,0,2.4,0,3.2,0.8c0.8,0.8,1.6,0.8,3.2,0.8
		v-1.6c-0.8,0-2.4,0-3.2-0.8S65.6,304.8,64,304.8z" />
			<path style="fill:#D32030;"
				d="M64,308c-0.8,0-2.4,0-3.2,0.8c-0.8,0.8-1.6,0.8-3.2,0.8c-0.8,0-2.4,0-3.2-0.8
		c-0.8,0-1.6-0.8-3.2-0.8c-0.8,0-2.4,0-3.2,0.8s-1.6,0.8-3.2,0.8v1.6c0.8,0,2.4,0,3.2-0.8c0.8,0,1.6-0.8,3.2-0.8
		c0.8,0,2.4,0,3.2,0.8s1.6,0.8,3.2,0.8c0.8,0,2.4,0,3.2-0.8c0.8,0,1.6-0.8,3.2-0.8c0.8,0,2.4,0,3.2,0.8c0.8,0.8,1.6,0.8,3.2,0.8
		v-1.6c-0.8,0-2.4,0-3.2-0.8C66.4,308.8,65.6,308,64,308z" />
			<path style="fill:#D32030;"
				d="M64.8,296.8c0,0.8-0.8,1.6-1.6,1.6H52.8c-0.8,0-1.6-0.8-1.6-1.6l0,0c0-0.8,0.8-1.6,1.6-1.6h10.4
		C64,295.2,64.8,296,64.8,296.8L64.8,296.8z" />
			<path style="fill:#D32030;"
				d="M64.8,248.8c0,0.8-0.8,1.6-1.6,1.6H52.8c-0.8,0-1.6-0.8-1.6-1.6l0,0c0.8-0.8,1.6-0.8,1.6-0.8h10.4
		C64,248,64.8,248,64.8,248.8L64.8,248.8z" />
		</g>
		<g>
			<path style="fill:#A5001C;"
				d="M124,238.4c0-1.6-0.8-2.4-2.4-2.4l0,0c0-1.6-9.6-2.4-21.6-2.4s-21.6,0.8-21.6,2.4l0,0
		c-0.8,0-1.6,1.6-1.6,2.4c0,0.8,0.8,2.4,2.4,2.4c0,1.6,9.6,2.4,21.6,2.4s21.6-0.8,21.6-2.4C123.2,240.8,124,240,124,238.4z" />
			<path style="fill:#A5001C;"
				d="M137.6,217.6C137.6,217.6,136.8,217.6,137.6,217.6L137.6,217.6L137.6,217.6l0.8-0.8l0,0
		c0.8-1.6,1.6-3.2,1.6-4.8c0-3.2-2.4-6.4-4.8-8l0.8,0.8c-2.4-1.6-6.4-3.2-10.4-3.2c-0.8,0-1.6,0-3.2,0c0,0,0,0-0.8,0
		c0,0-0.8,0-0.8,0.8c0,0,0,0-0.8,0c0,0,0,0,0,0.8l0,0c-0.8-0.8-1.6-1.6-2.4-2.4l0,0c-1.6-1.6-4.8-3.2-8-3.2c-2.4,0-4.8,0.8-7.2,1.6
		c0,0.8,0,0.8,0,1.6c1.6-0.8,4-1.6,6.4-1.6c4.8,0,9.6,2.4,9.6,6.4v0.8c0,1.6-0.8,2.4-1.6,3.2c-2.4,0-4-0.8-5.6-1.6
		c-2.4-0.8-5.6-1.6-8.8-1.6c0-0.8,0-1.6,0-2.4c0,0,0,0,0-0.8c0,0,0,0,0-0.8c0-1.6,0-2.4,0-3.2s-1.6-1.6-2.4-1.6
		c1.6,0,2.4-0.8,3.2-1.6l0,0l0,0c0,0,0-0.8,0-1.6l0,0c0-1.6-0.8-2.4-2.4-3.2v-2.4h1.6v-1.6h-1.6v-1.6h-1.6v1.6h-1.6v1.6h1.6v2.4
		c-1.6,0-2.4,1.6-2.4,3.2c0,0.8,0,0.8,0,1.6l0,0c0.8,0.8,1.6,1.6,2.4,1.6c-0.8,0-1.6,0.8-1.6,0.8s0,0,0-0.8s0-0.8-0.8-0.8
		s-0.8,0-0.8,0.8s0,0.8,0.8,0.8h0.8l-0.8,0.8l0,0c-1.6-0.8-4-1.6-7.2-1.6s-6.4,0.8-8,3.2l0,0c-0.8,0.8-2.4,1.6-2.4,2.4l0,0
		c0,0,0,0,0-0.8c0,0,0,0-0.8,0c0,0,0-0.8-0.8-0.8h-0.8c-0.8,0-1.6,0-3.2,0c-4,0-8,1.6-10.4,3.2L64,204c-3.2,1.6-4.8,4.8-4.8,8
		c0,1.6,0.8,4,1.6,4.8l0,0l0.8,0.8l0,0c-0.8,0-1.6,0.8-1.6,2.4c0,0,1.6,0,2.4,0.8s1.6,2.4,1.6,2.4l0,0c0,0.8,0,0.8,0,1.6
		c0.8,0.8,0.8,0.8,1.6,0c0.8,0.8,1.6,2.4,3.2,3.2c0.8,0.8,2.4,0.8,3.2,0.8c0,0,0,0,0.8,0l0,0H72c-0.8,0-0.8,0.8-0.8,0.8
		c0,0.8,0.8,0.8,0.8,0.8l0,0c0,0,0.8,0,1.6,0.8l0.8,0.8l1.6,0.8l0,0c0,0.8,0,1.6,0,1.6c6.4-1.6,14.4-3.2,24-3.2s18.4,1.6,24,3.2
		c-0.8,0-0.8-0.8,0-1.6l0,0l1.6-0.8l-0.8-0.8c0.8-0.8,1.6-0.8,1.6-0.8l0,0c0.8,0,0.8,0,0.8-0.8s0-0.8-0.8-0.8s-0.8,0-1.6,0l0,0
		l0.8,0.8c0.8,0,2.4,0,3.2-0.8c1.6-0.8,2.4-2.4,3.2-3.2c0.8,0,0.8,0,1.6,0c0.8-0.8,0.8-1.6,0-1.6l0,0c0,0,0.8-1.6,1.6-2.4
		c0.8-0.8,2.4-0.8,2.4-0.8C140,219.2,138.4,217.6,137.6,217.6z M78.4,204L78.4,204c-0.8,0-0.8,0-0.8,0.8s0,0.8,0.8,0.8v0.8
		c0,0-0.8,0-0.8,0.8s0,0.8,0.8,0.8l0,0v0.8c0,0,0,0,0,0.8c-0.8,0-1.6,0-2.4,0c-2.4,0-4.8,0.8-8,1.6c-1.6,0.8-2.4,1.6-4,1.6
		c-0.8-0.8-0.8-1.6-0.8-3.2c0-0.8,0-1.6,0.8-2.4c1.6-3.2,6.4-4.8,12-4.8c1.6,0,2.4,0,3.2,0l0,0l0,0l0,0l0,0
		C79.2,203.2,79.2,203.2,78.4,204z M97.6,202.4C97.6,202.4,96.8,203.2,97.6,202.4c0,1.6,0,2.4,0,3.2c-4,0-7.2,0.8-9.6,1.6
		c-1.6,0.8-3.2,0.8-5.6,1.6c-0.8-0.8-1.6-2.4-1.6-3.2v-0.8c0-3.2,4-6.4,9.6-6.4c2.4,0,4.8,0.8,6.4,1.6v-0.8
		C97.6,200,97.6,200.8,97.6,202.4C96.8,202.4,97.6,202.4,97.6,202.4z M138.4,207.2c0-0.8-0.8-1.6-1.6-2.4
		C137.6,205.6,137.6,206.4,138.4,207.2z M136,212.8c-0.8-0.8-2.4-1.6-4-2.4c-3.2-1.6-6.4-1.6-8-1.6c-0.8,0-1.6,0-1.6,0l0,0
		c0,0,0-0.8-0.8-0.8v-0.8l0,0c0.8,0,0.8,0,0.8-0.8c0,0,0-0.8-0.8-0.8v-0.8c0.8,0,0.8,0,0.8-0.8s0-0.8-0.8-0.8l0,0c0,0,0-0.8-0.8-0.8
		l0,0l0,0l0,0l0,0c0.8,0,2.4,0,3.2,0c5.6,0,10.4,2.4,12,4.8c0,0.8,0.8,1.6,0.8,2.4C137.6,211.2,136.8,212,136,212.8z" />
			<ellipse style="fill:#A5001C;" cx="140" cy="217.6" rx="0.8" ry="0.8" />
			<ellipse style="fill:#A5001C;" cx="140.8" cy="215.2" rx="0.8" ry="0.8" />
			<ellipse style="fill:#A5001C;" cx="141.6" cy="213.6" rx="0.8" ry="0.8" />
			<circle style="fill:#A5001C;" cx="141.6" cy="210.4" r="0.8" />
			<circle style="fill:#A5001C;" cx="140.8" cy="208" r="0.8" />
			<path style="fill:#A5001C;"
				d="M140,206.4c0.8,0,0.8,0,0.8-0.8s0-0.8-0.8-0.8s-0.8,0-0.8,0.8S139.2,206.4,140,206.4z" />
			<ellipse style="fill:#A5001C;" cx="137.6" cy="204" rx="0.8" ry="0.8" />
			<ellipse style="fill:#A5001C;" cx="136" cy="202.4" rx="0.8" ry="0.8" />
			<ellipse style="fill:#A5001C;" cx="133.6" cy="201.6" rx="0.8" ry="0.8" />
			<circle style="fill:#A5001C;" cx="131.2" cy="200" r="0.8" />
			<ellipse style="fill:#A5001C;" cx="128" cy="200" rx="0.8" ry="0.8" />
			<path style="fill:#A5001C;"
				d="M125.6,200.8c0.8,0,0.8,0,0.8-0.8s-0.8-0.8-0.8-0.8c-0.8,0-0.8,0-0.8,0.8
		C124.8,200,124.8,200.8,125.6,200.8z" />
			<circle style="fill:#A5001C;" cx="123.2" cy="200" r="0.8" />
			<circle style="fill:#A5001C;" cx="120.8" cy="200" r="0.8" />
			<ellipse style="fill:#A5001C;" cx="118.4" cy="198.4" rx="0.8" ry="0.8" />
			<ellipse style="fill:#A5001C;" cx="116" cy="196.8" rx="0.8" ry="0.8" />
			<circle style="fill:#A5001C;" cx="113.6" cy="196" r="0.8" />
			<ellipse style="fill:#A5001C;" cx="111.2" cy="196" rx="0.8" ry="0.8" />
			<ellipse style="fill:#A5001C;" cx="108.8" cy="196" rx="0.8" ry="0.8" />
			<ellipse style="fill:#A5001C;" cx="105.6" cy="196" rx="0.8" ry="0.8" />
			<circle style="fill:#A5001C;" cx="103.2" cy="196.8" r="0.8" />
			<ellipse style="fill:#A5001C;" cx="60.8" cy="217.6" rx="0.8" ry="0.8" />
			<ellipse style="fill:#A5001C;" cx="60" cy="215.2" rx="0.8" ry="0.8" />
			<ellipse style="fill:#A5001C;" cx="59.2" cy="213.6" rx="0.8" ry="0.8" />
			<ellipse style="fill:#A5001C;" cx="59.2" cy="210.4" rx="0.8" ry="0.8" />
			<ellipse style="fill:#A5001C;" cx="60" cy="208" rx="0.8" ry="0.8" />
			<ellipse style="fill:#A5001C;" cx="60.8" cy="205.6" rx="0.8" ry="0.8" />
			<circle style="fill:#A5001C;" cx="62.4" cy="204" r="0.8" />
			<ellipse style="fill:#A5001C;" cx="64.8" cy="202.4" rx="0.8" ry="0.8" />
			<ellipse style="fill:#A5001C;" cx="67.2" cy="201.6" rx="0.8" ry="0.8" />
			<circle style="fill:#A5001C;" cx="69.6" cy="200" r="0.8" />
			<circle style="fill:#A5001C;" cx="72.8" cy="200" r="0.8" />
			<ellipse style="fill:#A5001C;" cx="75.2" cy="200" rx="0.8" ry="0.8" />
			<ellipse style="fill:#A5001C;" cx="77.6" cy="200" rx="0.8" ry="0.8" />
			<circle style="fill:#A5001C;" cx="80" cy="200" r="0.8" />
			<ellipse style="fill:#A5001C;" cx="82.4" cy="198.4" rx="0.8" ry="0.8" />
			<ellipse style="fill:#A5001C;" cx="84.8" cy="196.8" rx="0.8" ry="0.8" />
			<ellipse style="fill:#A5001C;" cx="87.2" cy="196" rx="0.8" ry="0.8" />
			<ellipse style="fill:#A5001C;" cx="89.6" cy="196" rx="0.8" ry="0.8" />
			<ellipse style="fill:#A5001C;" cx="92" cy="196" rx="0.8" ry="0.8" />
			<ellipse style="fill:#A5001C;" cx="95.2" cy="196" rx="0.8" ry="0.8" />
		</g>
		<g>
			<path style="fill:#D32030;"
				d="M64,247.2C64,246.4,64,246.4,64,247.2L64,247.2c-0.8-0.8-3.2-0.8-5.6-0.8c-3.2,0-5.6,0-5.6,0.8l0,0
		c0,0,0,0,0,0.8c0,0,0,0.8,0.8,0.8c0,0,2.4,0.8,5.6,0.8S63.2,248,64,247.2L64,247.2z" />
			<path style="fill:#D32030;"
				d="M67.2,241.6L67.2,241.6L67.2,241.6L67.2,241.6L67.2,241.6L67.2,241.6c0.8-0.8,0.8-0.8,0.8-1.6
		s-0.8-1.6-1.6-1.6l0,0c-0.8-0.8-1.6-0.8-2.4-0.8h-0.8l0,0l0,0l0,0l0,0l0,0c0,0,0-0.8-0.8-0.8l0,0c-0.8-0.8-0.8-0.8-2.4-0.8
		c-0.8,0-1.6,0-1.6,0.8l0,0c0.8,0,0.8-0.8,1.6-0.8c1.6,0,2.4,0.8,2.4,1.6l0,0v0.8c-0.8,0-0.8,0-1.6,0c-0.8,0-1.6,0-2.4-0.8
		c0,0,0,0,0-0.8l0,0l0,0V236c0,0,0-0.8-0.8-0.8c0,0,0.8,0,0.8-0.8l0,0l0,0l0,0l0,0c0,0,0-0.8-0.8-0.8v-0.8h0.8V232h0v-0.8l0,0v0.8
		h-0.8v0.8h0.8v0.8c0,0-0.8,0-0.8,0.8l0,0l0,0c0,0,0,0.8,0.8,0.8c0,0,0,0-0.8,0l0,0l0,0l0,0l0,0l0,0l0,0l0,0c-0.8,0-0.8-0.8-1.6-0.8
		c-0.8,0-1.6,0-2.4,0.8l0,0c0,0-0.8,0-0.8,0.8l0,0l0,0l0,0l0,0l0,0H52c-0.8,0-1.6,0-2.4,0.8l0,0c-0.8,0.8-1.6,0.8-1.6,1.6
		s0,0.8,0.8,1.6l0,0l0,0l0,0c0,0-0.8,0-0.8,0.8h0.8l0.8,0.8l0,0c0,0,0,0,0,0.8l0,0c0,0,0,0.8,0.8,0.8h0.8l0,0l0,0l0,0l0,0l0,0l0,0
		l0,0l0,0l0,0l0,0c0,0,0,0,0,0.8c1.6-0.8,3.2-0.8,5.6-0.8c2.4,0,4.8,0,5.6,0.8c0,0,0,0,0-0.8l0,0l0,0l0,0l0,0l0,0l0,0l0,0l0,0l0,0
		l0,0h0.8l0.8-0.8l0,0c0,0,0,0,0-0.8l0,0C66.4,243.2,67.2,242.4,67.2,241.6C67.2,242.4,68,242.4,67.2,241.6
		C68,242.4,67.2,241.6,67.2,241.6z M52.8,238.4L52.8,238.4L52.8,238.4C52.8,238.4,52.8,239.2,52.8,238.4
		C52.8,239.2,52.8,239.2,52.8,238.4C52.8,239.2,52.8,239.2,52.8,238.4c0,0.8,0,0.8,0,0.8l0,0l0,0l0,0c0,0,0,0-0.8,0s-1.6,0-1.6,0.8
		c0,0-0.8,0-0.8,0.8V240v-0.8c0-0.8,1.6-1.6,3.2-1.6C52.8,238.4,52.8,238.4,52.8,238.4L52.8,238.4L52.8,238.4L52.8,238.4L52.8,238.4
		L52.8,238.4z M57.6,238.4L57.6,238.4L57.6,238.4c-0.8,0.8-1.6,0.8-2.4,0.8c0,0-0.8,0-1.6,0v-0.8l0,0c0-0.8,0.8-1.6,2.4-1.6
		C56.8,237.6,56.8,237.6,57.6,238.4C57.6,237.6,57.6,237.6,57.6,238.4C57.6,237.6,57.6,237.6,57.6,238.4L57.6,238.4z M67.2,239.2
		L67.2,239.2L67.2,239.2z M67.2,240.8c0,0-0.8,0-0.8-0.8c-0.8,0-1.6,0-2.4,0c0,0,0,0-0.8,0l0,0l0,0l0,0l0,0l0,0l0,0l0,0l0,0l0,0l0,0
		l0,0l0,0l0,0l0,0l0,0H64c1.6,0,2.4,0.8,3.2,1.6C67.2,239.2,67.2,240,67.2,240.8C67.2,240,67.2,240.8,67.2,240.8z" />
		</g>
		<g>
			<path style="fill:#A5001C;"
				d="M68,239.2L68,239.2L68,239.2C68,239.2,67.2,239.2,68,239.2C67.2,239.2,68,239.2,68,239.2z" />
			<path style="fill:#A5001C;"
				d="M148,247.2C148,246.4,148,246.4,148,247.2L148,247.2c-0.8-0.8-3.2-0.8-5.6-0.8c-3.2,0-5.6,0-5.6,0.8
		l0,0c0,0,0,0,0,0.8c0,0,0,0.8,0.8,0.8c0,0,2.4,0.8,5.6,0.8C145.6,248,148,248,148,247.2L148,247.2z" />
			<path style="fill:#A5001C;"
				d="M151.2,241.6L151.2,241.6L151.2,241.6L151.2,241.6L151.2,241.6L151.2,241.6c0.8,0,0.8-0.8,0.8-1.6
		s-0.8-1.6-1.6-1.6l0,0c-0.8-0.8-1.6-0.8-2.4-0.8h-0.8l0,0l0,0l0,0l0,0l0,0c0,0,0-0.8-0.8-0.8l0,0c-0.8-0.8-0.8-0.8-2.4-0.8
		c-0.8,0-1.6,0-1.6,0.8l0,0c0.8,0,0.8-0.8,1.6-0.8c1.6,0,2.4,0.8,2.4,1.6l0,0v0.8c-0.8,0-0.8,0-1.6,0s-1.6,0-2.4-0.8c0,0,0,0,0-0.8
		l0,0l0,0V236c0,0,0-0.8-0.8-0.8c0,0,0.8,0,0.8-0.8l0,0l0,0l0,0l0,0c0,0,0-0.8-0.8-0.8v-0.8h0.8V232h-0.8v-0.8h-0.8v0.8H140v0.8h0.8
		v0.8c0,0-0.8,0-0.8,0.8l0,0l0,0c0,0,0,0.8,0.8,0.8c0,0,0,0-0.8,0l0,0l0,0l0,0l0,0l0,0l0,0l0,0c-0.8,0-0.8-0.8-1.6-0.8
		s-1.6,0-2.4,0.8l0,0c0,0-0.8,0-0.8,0.8l0,0l0,0l0,0l0,0l0,0h-0.8c-0.8,0-1.6,0-2.4,0.8l0,0c-0.8,0.8-1.6,0.8-1.6,1.6s0,0.8,0.8,1.6
		l0,0l0,0l0,0c0,0-0.8,0-0.8,0.8c0,0,0,0,0.8,0l0.8,0.8l0,0c0,0,0,0,0,0.8l0,0c0,0,0,0.8,0.8,0.8h0.8l0,0l0,0l0,0l0,0l0,0l0,0l0,0
		l0,0l0,0l0,0c0,0,0,0,0,0.8c1.6-0.8,3.2-0.8,5.6-0.8c2.4,0,4.8,0,5.6,0.8c0,0,0,0,0-0.8l0,0l0,0l0,0l0,0l0,0l0,0l0,0l0,0l0,0l0,0
		h0.8l0.8-0.8l0,0c0,0,0,0,0-0.8l0,0C151.2,243.2,151.2,242.4,151.2,241.6C151.2,242.4,152,242.4,151.2,241.6
		C152,242.4,152,241.6,151.2,241.6z M137.6,238.4L137.6,238.4C136.8,238.4,136.8,238.4,137.6,238.4
		C136.8,238.4,136.8,239.2,137.6,238.4C136.8,239.2,136.8,239.2,137.6,238.4C136.8,239.2,136.8,239.2,137.6,238.4c0,0.8,0,0.8,0,0.8
		l0,0l0,0l0,0c0,0,0,0-0.8,0s-1.6,0-1.6,0.8c0,0-0.8,0-0.8,0.8V240v-0.8c0-0.8,1.6-1.6,3.2-1.6C136.8,238.4,136.8,238.4,137.6,238.4
		L137.6,238.4L137.6,238.4L137.6,238.4L137.6,238.4L137.6,238.4z M141.6,238.4L141.6,238.4L141.6,238.4c-0.8,0.8-1.6,0.8-2.4,0.8
		c0,0-0.8,0-1.6,0v-0.8l0,0c0-0.8,0.8-1.6,2.4-1.6C140.8,237.6,141.6,237.6,141.6,238.4C141.6,237.6,141.6,237.6,141.6,238.4
		C141.6,237.6,141.6,237.6,141.6,238.4L141.6,238.4z M152,239.2C151.2,239.2,151.2,239.2,152,239.2
		C151.2,239.2,151.2,239.2,152,239.2z M151.2,240.8c0,0-0.8,0-0.8-0.8c-0.8,0-1.6-0.8-1.6-0.8s0,0-0.8,0l0,0l0,0l0,0l0,0l0,0l0,0
		l0,0l0,0l0,0l0,0l0,0l0,0l0,0l0,0l0,0h0.8c1.6,0,2.4,0.8,3.2,1.6C151.2,239.2,151.2,240,151.2,240.8
		C151.2,240,151.2,240.8,151.2,240.8z" />
		</g>
		<g>
			<path style="fill:#D32030;"
				d="M100,231.2v-46.4h-0.8v1.6h-1.6v1.6h1.6v2.4c-1.6,0-2.4,1.6-2.4,3.2c0,0.8,0,0.8,0,1.6l0,0
		c0.8,0.8,1.6,1.6,2.4,1.6c-0.8,0-1.6,0.8-1.6,0.8s0,0,0-0.8s0-0.8-0.8-0.8s-0.8,0-0.8,0.8s0,0.8,0.8,0.8h0.8l-0.8,0.8l0,0
		c-1.6-0.8-4-1.6-7.2-1.6s-6.4,0.8-8,3.2l0,0c-0.8,0.8-2.4,1.6-2.4,2.4l0,0c0,0,0,0,0-0.8c0,0,0,0-0.8,0c0,0,0-0.8-0.8-0.8h-0.8
		c-0.8,0-1.6,0-3.2,0c-4,0-8,1.6-10.4,3.2l0.8-0.8c-3.2,1.6-4.8,4.8-4.8,8c0,1.6,0.8,4,1.6,4.8l0,0l0.8,0.8l0,0
		c-0.8,0-1.6,0.8-1.6,2.4c0,0,1.6,0,2.4,0.8s1.6,2.4,1.6,2.4l0,0c0,0.8,0,0.8,0,1.6c0.8,0.8,0.8,0.8,1.6,0c0.8,0.8,1.6,2.4,3.2,3.2
		c0.8,0.8,2.4,0.8,3.2,0.8c0,0,0,0,0.8,0l0,0H72c-0.8,0-0.8,0.8-0.8,0.8c0,0.8,0.8,0.8,0.8,0.8l0,0c0,0,0.8,0,1.6,0.8l0.8,1.6
		l1.6,0.8l0,0c0,0.8,0,1.6,0,1.6C82.4,232,91.2,231.2,100,231.2z M80.8,204.8c0-3.2,4-6.4,9.6-6.4c2.4,0,4.8,0.8,6.4,1.6v-0.8
		c0,0.8,0,1.6,0,2.4c0,0,0,0,0,0.8c0,0,0,0,0,0.8s0,1.6,0,2.4c-4,0-7.2,0.8-9.6,1.6c-1.6,0.8-3.2,0.8-5.6,1.6
		C81.6,208,80.8,206.4,80.8,204.8L80.8,204.8z M76,208.8c-2.4,0-4.8,0.8-8,1.6c-1.6,0.8-2.4,1.6-4,1.6c-0.8-0.8-0.8-1.6-0.8-3.2
		c0-0.8,0-1.6,0.8-2.4c1.6-3.2,6.4-4.8,12-4.8c1.6,0,2.4,0,3.2,0l0,0l0,0l0,0l0,0c0,0,0,0.8-0.8,0.8l0,0c-0.8,0-0.8,0-0.8,0.8
		s0,0.8,0.8,0.8v0.8c0,0-0.8,0-0.8,0.8s0,0.8,0.8,0.8l0,0v0.8c0,0,0,0,0,0.8C77.6,208.8,76.8,208.8,76,208.8z" />
			<path style="fill:#D32030;"
				d="M100,233.6L100,233.6c-12.8,0-22.4,0.8-22.4,2.4l0,0c-0.8,0-1.6,1.6-1.6,2.4c0,0.8,0.8,2.4,2.4,2.4
		c0,1.6,9.6,2.4,21.6,2.4V233.6z" />
			<path style="fill:#D32030;" d="M100,244.8H69.6v33.6c0,16.8,13.6,30.4,30.4,30.4V244.8z" />
		</g>
	</symbol>

	<!-- Bandera de Reino Unido -->
	<symbol id="icon-uk" viewBox="0 0 512 512">
		<path style="fill:#41479B;"
			d="M473.655,88.276H38.345C17.167,88.276,0,105.443,0,126.621V385.38
	c0,21.177,17.167,38.345,38.345,38.345h435.31c21.177,0,38.345-17.167,38.345-38.345V126.621
	C512,105.443,494.833,88.276,473.655,88.276z" />
		<path style="fill:#F5F5F5;"
			d="M511.469,120.282c-3.022-18.159-18.797-32.007-37.814-32.007h-9.977l-163.54,107.147V88.276h-88.276
	v107.147L48.322,88.276h-9.977c-19.017,0-34.792,13.847-37.814,32.007l139.778,91.58H0v88.276h140.309L0.531,391.717
	c3.022,18.159,18.797,32.007,37.814,32.007h9.977l163.54-107.147v107.147h88.276V316.577l163.54,107.147h9.977
	c19.017,0,34.792-13.847,37.814-32.007l-139.778-91.58H512v-88.276H371.691L511.469,120.282z" />
		<g>
			<polygon style="fill:#FF4B55;"
				points="282.483,88.276 229.517,88.276 229.517,229.517 0,229.517 0,282.483 229.517,282.483 
		229.517,423.724 282.483,423.724 282.483,282.483 512,282.483 512,229.517 282.483,229.517 	" />
			<path style="fill:#FF4B55;"
				d="M24.793,421.252l186.583-121.114h-32.428L9.224,410.31
		C13.377,415.157,18.714,418.955,24.793,421.252z" />
			<path style="fill:#FF4B55;"
				d="M346.388,300.138H313.96l180.716,117.305c5.057-3.321,9.277-7.807,12.287-13.075L346.388,300.138z"
			/>
			<path style="fill:#FF4B55;"
				d="M4.049,109.475l157.73,102.387h32.428L15.475,95.842C10.676,99.414,6.749,104.084,4.049,109.475z" />
			<path style="fill:#FF4B55;"
				d="M332.566,211.862l170.035-110.375c-4.199-4.831-9.578-8.607-15.699-10.86L300.138,211.862H332.566z"
			/>
		</g>
	</symbol>


	<!-- 
	////////////////////////////////
	///// SVG de uso constante ///// 
	////////////////////////////////
	-->

	<!-- Correo, Email -->
	<symbol id="icon-mail" xmlns="http://www.w3.org/2000/svg"
		viewBox="0 0 24 24" fill="none"
		stroke="currentColor" stroke-width="1.50" stroke-linecap="round" stroke-linejoin="round"
		class="min-w-5 shrink-0 relative z-10">
		<path d="m22 7-8.991 5.727a2 2 0 0 1-2.009 0L2 7" />
		<rect x="2" y="4" width="20" height="16" rx="2" />
	</symbol>

	<!-- Message, Mensaje -->
	<symbol id="icon-message" xmlns="http://www.w3.org/2000/svg"
		viewBox="0 0 24 24" fill="none"
		stroke="currentColor" stroke-width="2" stroke-linecap="round" stroke-linejoin="round">
		<path d="M21 15a2 2 0 0 1-2 2H7l-4 4V5a2 2 0 0 1 2-2h14a2 2 0 0 1 2 2z" />
	</symbol>

	<!-- Send, Enviar, Avion de papel -->
	<symbol id="icon-send" xmlns="http://www.w3.org/2000/svg" viewBox="0 0 24 24" fill="none"
		stroke="currentColor" stroke-width="2" stroke-linecap="round" stroke-linejoin="round">
		<path d="M22 2 11 13" />
		<path d="m22 2-7 20-4-9-9-4 20-7z" />
	</symbol>


	<!-- Monitor con engranaje, Monitor para proyectos, Monitor para administración -->
	<symbol id="icon-monitor-cog" xmlns="http://www.w3.org/2000/svg" viewBox="0 0 24 24" fill="none"
		stroke="currentColor" stroke-width="1.50" stroke-linecap="round" stroke-linejoin="round"
		class="min-w-5 shrink-0 relative z-10">
		<path d="M12 17v4" />
		<path d="m14.305 7.53.923-.382" />
		<path d="m15.228 4.852-.923-.383" />
		<path d="m16.852 3.228-.383-.924" />
		<path d="m16.852 8.772-.383.923" />
		<path d="m19.148 3.228.383-.924" />
		<path d="m19.53 9.696-.382-.924" />
		<path d="m20.772 4.852.924-.383" />
		<path d="m20.772 7.148.924.383" />
		<path d="M22 13v2a2 2 0 0 1-2 2H4a2 2 0 0 1-2-2V5a2 2 0 0 1 2-2h7" />
		<path d="M8 21h8" />
		<circle cx="18" cy="6" r="3" />
	</symbol>

	<!-- Monitor con Circulo, Monitor para Notificaciones -->
	<symbol id="icon-monitor-dot" xmlns="http://www.w3.org/2000/svg"
		viewBox="0 0 24 24" fill="none"
		stroke="currentColor" stroke-width="2" stroke-linecap="round" stroke-linejoin="round"
		class="lucide lucide-monitor-dot-icon lucide-monitor-dot">
		<path d="M12 17v4"></path>
		<path d="M22 12.307V15a2 2 0 0 1-2 2H4a2 2 0 0 1-2-2V5a2 2 0 0 1 2-2h8.693"></path>
		<path d="M8 21h8"></path>
		<circle cx="19" cy="6" r="3"></circle>
	</symbol>

	<!-- Cerebro -->
	<symbol id="icon-brain" xmlns="http://www.w3.org/2000/svg"
		viewBox="0 0 24 24" fill="none"
		stroke="currentColor" stroke-width="1.50" stroke-linecap="round" stroke-linejoin="round"
		class="min-w-5 shrink-0 relative z-10">
		<path d="M12 18V5" />
		<path d="M15 13a4.17 4.17 0 0 1-3-4 4.17 4.17 0 0 1-3 4" />
		<path d="M17.598 6.5A3 3 0 1 0 12 5a3 3 0 1 0-5.598 1.5" />
		<path d="M17.997 5.125a4 4 0 0 1 2.526 5.77" />
		<path d="M18 18a4 4 0 0 0 2-7.464" />
		<path d="M19.967 17.483A4 4 0 1 1 12 18a4 4 0 1 1-7.967-.517" />
		<path d="M6 18a4 4 0 0 1-2-7.464" />
		<path d="M6.003 5.125a4 4 0 0 0-2.526 5.77" />
	</symbol>

	<!-- Usuario -->
	<symbol id="icon-user" xmlns="http://www.w3.org/2000/svg"
		viewBox="0 0 24 24" fill="none"
		stroke="currentColor" stroke-width="1.50" stroke-linecap="round" stroke-linejoin="round"
		class="min-w-5 shrink-0 relative z-10">
		<path d="M19 21v-2a4 4 0 0 0-4-4H9a4 4 0 0 0-4 4v2" />
		<circle cx="12" cy="7" r="4" />
	</symbol>

	<!-- Lenguaje, Language -->
	<symbol id="icon-language" xmlns="http://www.w3.org/2000/svg"
		viewBox="0 0 24 24" fill="none" stroke="currentColor" stroke-width="2"
		stroke-linecap="round" stroke-linejoin="round"
		class="lucide lucide-languages-icon lucide-languages">
		<path d="m5 8 6 6" />
		<path d="m4 14 6-6 2-3" />
		<path d="M2 5h12" />
		<path d="M7 2h1" />
		<path d="m22 22-5-10-5 10" />
		<path d="M14 18h6" />
	</symbol>

	<!-- Documet, documento -->
	<symbol id="icon-document" xmlns="http://www.w3.org/2000/svg"
		viewBox="0 0 24 24" fill="none"
		stroke="currentColor" stroke-width="2" stroke-linecap="round" stroke-linejoin="round">
		<path
			d="M6 22a2 2 0 0 1-2-2V4a2 2 0 0 1 2-2h8a2.4 2.4 0 0 1 1.704.706l3.588 3.588A2.4 2.4 0 0 1 20 8v12a2 2 0 0 1-2 2z" />
		<path d="M14 2v5a1 1 0 0 0 1 1h5" />
		<path d="M10 9H8" />
		<path d="M16 13H8" />
		<path d="M16 17H8" />
	</symbol>

	<!-- Server -->
	<symbol id="icon-server" xmlns="http://www.w3.org/2000/svg"
		viewBox="0 0 24 24" fill="none"
		stroke="#ffffff" stroke-width="2" stroke-linecap="round" stroke-linejoin="round"
		class="lucide lucide-server-icon">
		<rect width="20" height="8" x="2" y="2" rx="2" ry="2"></rect>
		<rect width="20" height="8" x="2" y="14" rx="2" ry="2"></rect>
		<line x1="6" x2="6.01" y1="6" y2="6"></line>
		<line x1="6" x2="6.01" y1="18" y2="18"></line>
	</symbol>

	<!-- Wrench, Llave inglesa -->
	<symbol id="icon-wrench" xmlns="http://www.w3.org/2000/svg" viewBox="0 0 24 24" fill="none"
		stroke="#ffffff" stroke-width="2" stroke-linecap="round" stroke-linejoin="round"
		class="lucide lucide-wrench-icon">
		<path
			d="M14.7 6.3a1 1 0 0 0 0 1.4l1.6 1.6a1 1 0 0 0 1.4 0l3.77-3.77a6 6 0 0 1-7.94 7.94l-6.91 6.91a2.12 2.12 0 0 1-3-3l6.91-6.91a6 6 0 0 1 7.94-7.94l-3.76 3.76z">
		</path>
	</symbol>

	<!-- Cursor Click de guante -->
	<symbol id="icon-cursor-click" xmlns="http://www.w3.org/2000/svg"
		viewBox="0 0 640 640">
		<path
			d="M256 128C256 119.2 263.2 112 272 112C280.8 112 288 119.2 288 128L288 264C288 274.3 294.6 283.5 304.4 286.8C314.2 290.1 325 286.7 331.2 278.5C334.2 274.6 338.8 272.1 344 272.1C352.8 272.1 360 279.3 360 288.1C360 298.4 366.6 307.6 376.4 310.9C386.2 314.2 397 310.8 403.2 302.6C406.2 298.7 410.8 296.2 416 296.2C423.8 296.2 430.3 301.8 431.7 309.2C433.3 317.4 439 324.3 446.8 327.2C454.6 330.1 463.5 328.8 470.1 323.6C472.8 321.5 476.2 320.2 480 320.2C488.8 320.2 496 327.4 496 336.2L496 456.2C496 496 463.8 528.2 424 528.2L307.4 528.2C270 528.2 235 509.5 214.2 478.3L146.7 376.9C141.8 369.5 143.8 359.6 151.1 354.7C158.4 349.8 168.4 351.8 173.3 359.1L212 417.2C217.9 426 228.8 429.9 238.9 426.9C249 423.9 255.9 414.5 255.9 403.9L256 128zM272 64C236.7 64 208 92.7 208 128L208 325.7C187.2 302 151.5 296.8 124.5 314.7C95.1 334.4 87.1 374.1 106.8 403.5L174.3 504.8C204 549.3 253.9 576 307.4 576L424 576C490.3 576 544 522.3 544 456L544 336C544 300.7 515.3 272 480 272C475.5 272 471.2 272.5 467 273.3C455.3 257.9 436.8 248 416 248C409.1 248 402.5 249.1 396.3 251.1C384.7 234.7 365.6 224 344 224C341.3 224 338.6 224.2 336 224.5L336 128C336 92.7 307.3 64 272 64zM320 368C320 359.2 312.8 352 304 352C295.2 352 288 359.2 288 368L288 464C288 472.8 295.2 480 304 480C312.8 480 320 472.8 320 464L320 368zM368 352C359.2 352 352 359.2 352 368L352 464C352 472.8 359.2 480 368 480C376.8 480 384 472.8 384 464L384 368C384 359.2 376.8 352 368 352zM448 368C448 359.2 440.8 352 432 352C423.2 352 416 359.2 416 368L416 464C416 472.8 423.2 480 432 480C440.8 480 448 472.8 448 464L448 368z"
			fill="currentColor" />
	</symbol>

	<!-- square-arrow-out-up-right, Compartir, Abrir -->
	<symbol id="icon-open" xmlns="http://www.w3.org/2000/svg" width="16" height="16"
		viewBox="0 0 24 24" fill="none" stroke="currentColor" stroke-width="2">
		<path d="M21 13v6a2 2 0 0 1-2 2H5a2 2 0 0 1-2-2V5a2 2 0 0 1 2-2h6" />
		<path d="m21 3-9 9" />
		<path d="M15 3h6v6" />
	</symbol>

	<!-- 
	////////////////////////////////
	///////// SVG de Logos ///////// 
	////////////////////////////////
	-->

	<!-- Redes Sociales -->

	<!-- Github -->
	<symbol id="icon-github" viewBox="0 0 24 24" fill="currentColor">
		<path fill-rule="evenodd" clip-rule="evenodd"
			d="M12 0C5.37 0 0 5.37 0 12c0 5.31 3.435 9.795 8.205 11.385.6.105.825-.255.825-.57 0-.285-.015-1.23-.015-2.235-3.015.555-3.795-.735-4.035-1.41-.135-.345-.72-1.41-1.23-1.695-.42-.225-1.02-.78-.015-.795.945-.015 1.62.87 1.845 1.23 1.08 1.815 2.805 1.305 3.495.99.105-.78.42-1.305.765-1.605-2.67-.3-5.46-1.335-5.46-5.925 0-1.305.465-2.385 1.23-3.225-.12-.3-.54-1.53.12-3.18 0 0 1.005-.315 3.3 1.23.96-.27 1.98-.405 3-.405s2.04.135 3 .405c2.295-1.56 3.3-1.23 3.3-1.23.66 1.65.24 2.88.12 3.18.765.84 1.23 1.905 1.23 3.225 0 4.605-2.805 5.625-5.475 5.925.435.375.81 1.095.81 2.22 0 1.605-.015 2.895-.015 3.3 0 .315.225.69.825.57A12.02 12.02 0 0024 12c0-6.63-5.37-12-12-12z" />
	</symbol>

	<!-- Linkedin -->
	<symbol id="icon-linkedin" xmlns="http://www.w3.org/2000/svg" viewBox="0 0 1792 1792">
		<path fill="white"
			d="M477 625v991H147V625h330zm21-306q1 73-50.5 122T312 490h-2q-82 0-132-49t-50-122q0-74 51.5-122.5T314 148t133 48.5T498 319zm1166 729v568h-329v-530q0-105-40.5-164.5T1168 862q-63 0-105.5 34.5T999 982q-11 30-11 81v553H659q2-399 2-647t-1-296l-1-48h329v144h-2q20-32 41-56t56.5-52 87-43.5T1285 602q171 0 275 113.5t104 332.5z" />
	</symbol>

	<!-- Frontend -->
	<!-- HTML -->
	<symbol id="icon-html" viewBox="0 0 452 520">
		<path fill="#e34f26" d="M41 460L0 0h451l-41 460-185 52"></path>
		<path fill="#ef652a" d="M226 472l149-41 35-394H226"></path>
		<path fill="#ecedee"
			d="M226 208h-75l-5-58h80V94H84l15 171h127zm0 147l-64-17-4-45h-56l7 89 117 32z">
		</path>
		<path fill="#fff" d="M226 265h69l-7 73-62 17v59l115-32 16-174H226zm0-171v56h136l5-56z"></path>
	</symbol>

	<!-- CSS -->
	<symbol id="icon-css" viewBox="0 0 512 512">
		<path fill="#264de4" d="M71.357 460.819 30.272 0h451.456l-41.129 460.746L255.724 512z"></path>
		<path fill="#2965f1" d="m405.388 431.408 35.148-393.73H256v435.146z"></path>
		<path fill="#ebebeb"
			d="m124.46 208.59 5.065 56.517H256V208.59zm-5.041-57.875H256V94.197H114.281zM256 355.372l-.248.066-62.944-16.996-4.023-45.076h-56.736l7.919 88.741 115.772 32.14.26-.073z">
		</path>
		<path fill="#fff"
			d="M255.805 208.59v56.517H325.4l-6.56 73.299-63.035 17.013v58.8l115.864-32.112.85-9.549 13.28-148.792 1.38-15.176 10.203-114.393H255.805v56.518h79.639L330.3 208.59z">
		</path>
	</symbol>

	<!-- JavaScript -->
	<symbol id="icon-javascript" viewBox="0 0 1052 1052">
		<path fill="#f0db4f" d="M0 0h1052v1052H0z"></path>
		<path
			d="M965.9 801.1c-7.7-48-39-88.3-131.7-125.9-32.2-14.8-68.1-25.399-78.8-49.8-3.8-14.2-4.3-22.2-1.9-30.8 6.9-27.9 40.2-36.6 66.6-28.6 17 5.7 33.1 18.801 42.8 39.7 45.4-29.399 45.3-29.2 77-49.399-11.6-18-17.8-26.301-25.4-34-27.3-30.5-64.5-46.2-124-45-10.3 1.3-20.699 2.699-31 4-29.699 7.5-58 23.1-74.6 44-49.8 56.5-35.6 155.399 25 196.1 59.7 44.8 147.4 55 158.6 96.9 10.9 51.3-37.699 67.899-86 62-35.6-7.4-55.399-25.5-76.8-58.4-39.399 22.8-39.399 22.8-79.899 46.1 9.6 21 19.699 30.5 35.8 48.7 76.2 77.3 266.899 73.5 301.1-43.5 1.399-4.001 10.6-30.801 3.199-72.101zm-394-317.6h-98.4c0 85-.399 169.4-.399 254.4 0 54.1 2.8 103.7-6 118.9-14.4 29.899-51.7 26.2-68.7 20.399-17.3-8.5-26.1-20.6-36.3-37.699-2.8-4.9-4.9-8.7-5.601-9-26.699 16.3-53.3 32.699-80 49 13.301 27.3 32.9 51 58 66.399 37.5 22.5 87.9 29.4 140.601 17.3 34.3-10 63.899-30.699 79.399-62.199 22.4-41.3 17.6-91.3 17.4-146.6.5-90.2 0-180.4 0-270.9z"
			fill="#323330"></path>
	</symbol>

	<!-- Tailwind -->
	<symbol id="icon-tailwind" viewBox="0 0 54 33">
		<g clip-path="url(#tailwindcss__a)">
			<path fill="#38bdf8" fill-rule="evenodd"
				d="M27 0c-7.2 0-11.7 3.6-13.5 10.8 2.7-3.6 5.85-4.95 9.45-4.05 2.054.513 3.522 2.004 5.147 3.653C30.744 13.09 33.808 16.2 40.5 16.2c7.2 0 11.7-3.6 13.5-10.8-2.7 3.6-5.85 4.95-9.45 4.05-2.054-.513-3.522-2.004-5.147-3.653C36.756 3.11 33.692 0 27 0zM13.5 16.2C6.3 16.2 1.8 19.8 0 27c2.7-3.6 5.85-4.95 9.45-4.05 2.054.514 3.522 2.004 5.147 3.653C17.244 29.29 20.308 32.4 27 32.4c7.2 0 11.7-3.6 13.5-10.8-2.7 3.6-5.85 4.95-9.45 4.05-2.054-.513-3.522-2.004-5.147-3.653C23.256 19.31 20.192 16.2 13.5 16.2z"
				clip-rule="evenodd"></path>
		</g>
		<defs>
			<clipPath id="tailwindcss__a">
				<path fill="#fff" d="M0 0h54v32.4H0z"></path>
			</clipPath>
		</defs>
	</symbol>

	<!-- Bootstrap -->
	<symbol id="icon-bootstrap" viewBox="0 0 256 204">
		<path fill="#7E13F8"
			d="M53.172 0C38.565 0 27.756 12.785 28.240 26.65c.465 13.32-.139 30.573-4.482 44.642C19.402 85.402 12.034 94.34 0 95.488v12.956c12.034 1.148 19.402 10.086 23.758 24.197 4.343 14.069 4.947 31.32 4.482 44.641-.484 13.863 10.325 26.65 24.934 26.65h149.673c14.608 0 25.414-12.785 24.93-26.65-.464-13.32.139-30.572 4.482-44.641 4.359-14.11 11.707-23.05 23.741-24.197V95.488c-12.034-1.148-19.382-10.086-23.74-24.196-4.344-14.067-4.947-31.321-4.483-44.642C228.261 12.787 217.455 0 202.847 0H53.17h.002ZM173.56 125.533c0 19.092-14.24 30.67-37.872 30.67h-40.23a4.339 4.339 0 0 1-4.338-4.339V52.068a4.339 4.339 0 0 1 4.339-4.34h39.999c19.705 0 32.637 10.675 32.637 27.063 0 11.503-8.7 21.801-19.783 23.604v.601c15.089 1.655 25.248 12.104 25.248 26.537Zm-42.26-64.05h-22.937v32.4h19.32c14.934 0 23.17-6.014 23.17-16.764 0-10.073-7.082-15.636-19.552-15.636Zm-22.937 45.256v35.705h23.782c15.548 0 23.786-6.239 23.786-17.965 0-11.728-8.467-17.742-24.786-17.742h-22.782v.002Z">
		</path>
	</symbol>

	<!-- Astro -->
	<!-- <symbol id="icon-astro" xmlns="http://www.w3.org/2000/svg" fill="none" viewBox="0 0 85 107">
		<path fill="#fff"
			d="M27.59 91.136c-4.834-4.418-6.246-13.703-4.232-20.429 3.492 4.241 8.33 5.584 13.342 6.343 7.737 1.17 15.336.732 22.523-2.804.822-.405 1.582-.943 2.48-1.489.675 1.957.85 3.932.615 5.943-.573 4.896-3.01 8.678-6.885 11.545-1.55 1.147-3.19 2.172-4.79 3.253-4.917 3.323-6.247 7.22-4.4 12.888.044.139.084.277.183.614-2.51-1.124-4.344-2.76-5.742-4.911-1.475-2.27-2.177-4.78-2.214-7.498-.019-1.322-.019-2.656-.197-3.96-.434-3.178-1.926-4.601-4.737-4.683-2.884-.084-5.166 1.699-5.771 4.507-.046.216-.113.429-.18.68l.004.001Z" />
		<path fill="url(#a)"
			d="M27.59 91.136c-4.834-4.418-6.246-13.703-4.232-20.429 3.492 4.241 8.33 5.584 13.342 6.343 7.737 1.17 15.336.732 22.523-2.804.822-.405 1.582-.943 2.48-1.489.675 1.957.85 3.932.615 5.943-.573 4.896-3.01 8.678-6.885 11.545-1.55 1.147-3.19 2.172-4.79 3.253-4.917 3.323-6.247 7.22-4.4 12.888.044.139.084.277.183.614-2.51-1.124-4.344-2.76-5.742-4.911-1.475-2.27-2.177-4.78-2.214-7.498-.019-1.322-.019-2.656-.197-3.96-.434-3.178-1.926-4.601-4.737-4.683-2.884-.084-5.166 1.699-5.771 4.507-.046.216-.113.429-.18.68l.004.001Z" />
		<path fill="#fff"
			d="M0 69.587s14.314-6.973 28.668-6.973L39.49 29.12c.405-1.62 1.588-2.72 2.924-2.72 1.335 0 2.518 1.1 2.924 2.72L56.16 62.614c17 0 28.668 6.973 28.668 6.973S60.514 3.352 60.467 3.219C59.769 1.261 58.591 0 57.003 0H27.827c-1.588 0-2.718 1.261-3.464 3.22C24.311 3.35 0 69.586 0 69.586Z" />
		<defs>
			<linearGradient id="a" x1="22.47" x2="69.145" y1="107" y2="84.947"
				gradientUnits="userSpaceOnUse">
				<stop stop-color="#D83333" />
				<stop offset="1" stop-color="#F041FF" />
			</linearGradient>
		</defs>
	</symbol> -->

	<!-- Backend -->
	<!-- PHP -->
	<symbol id="icon-php" xmlns="http://www.w3.org/2000/svg" viewBox="0 0 128 128">
		<path fill="url(#a)"
			d="M0 64c0 18.593 28.654 33.667 64 33.667 35.346 0 64-15.074 64-33.667 0-18.593-28.655-33.667-64-33.667C28.654 30.333 0 45.407 0 64Z" />
		<path fill="#777bb3"
			d="M64 95.167c33.965 0 61.5-13.955 61.5-31.167 0-17.214-27.535-31.167-61.5-31.167S2.5 46.786 2.5 64c0 17.212 27.535 31.167 61.5 31.167Z" />
		<path
			d="M34.772 67.864c2.793 0 4.877-.515 6.196-1.53 1.306-1.006 2.207-2.747 2.68-5.175.44-2.27.272-3.854-.5-4.71-.788-.874-2.493-1.317-5.067-1.317h-4.464l-2.473 12.732zM20.173 83.547a.694.694 0 0 1-.68-.828l6.557-33.738a.695.695 0 0 1 .68-.561h14.134c4.442 0 7.748 1.206 9.827 3.585 2.088 2.39 2.734 5.734 1.917 9.935-.333 1.711-.905 3.3-1.7 4.724a15.818 15.818 0 0 1-3.128 3.92c-1.531 1.432-3.264 2.472-5.147 3.083-1.852.604-4.232.91-7.07.91h-5.724l-1.634 8.408a.695.695 0 0 1-.682.562z" />
		<path fill="#fff"
			d="M34.19 55.826h3.891c3.107 0 4.186.682 4.553 1.089.607.674.723 2.097.331 4.112-.439 2.257-1.253 3.858-2.42 4.756-1.194.92-3.138 1.386-5.773 1.386h-2.786l2.205-11.342zm6.674-8.1H26.731a1.39 1.39 0 0 0-1.364 1.123L18.81 82.588a1.39 1.39 0 0 0 1.363 1.653h7.35a1.39 1.39 0 0 0 1.363-1.124l1.525-7.846h5.151c2.912 0 5.364-.318 7.287-.944 1.977-.642 3.796-1.731 5.406-3.237a16.522 16.522 0 0 0 3.259-4.087c.831-1.487 1.429-3.147 1.775-4.931.86-4.423.161-7.964-2.076-10.524-2.216-2.537-5.698-3.823-10.349-3.823zM30.301 68.557h4.471c2.963 0 5.17-.557 6.62-1.675 1.451-1.116 2.428-2.98 2.938-5.591.485-2.508.264-4.277-.665-5.308-.931-1.03-2.791-1.546-5.584-1.546h-5.036l-2.743 14.12m10.563-19.445c4.252 0 7.353 1.117 9.303 3.348 1.95 2.232 2.536 5.347 1.76 9.346-.322 1.648-.863 3.154-1.625 4.518-.764 1.366-1.76 2.614-2.991 3.747-1.468 1.373-3.097 2.352-4.892 2.935-1.794.584-4.08.875-6.857.875h-6.296l-1.743 8.97h-7.35l6.558-33.739h14.133" />
		<path
			d="M69.459 74.577a.694.694 0 0 1-.682-.827l2.9-14.928c.277-1.42.209-2.438-.19-2.87-.245-.263-.979-.704-3.15-.704h-5.256l-3.646 18.768a.695.695 0 0 1-.683.56h-7.29a.695.695 0 0 1-.683-.826l6.558-33.739a.695.695 0 0 1 .682-.561h7.29a.695.695 0 0 1 .683.826L64.41 48.42h5.653c4.307 0 7.227.758 8.928 2.321 1.733 1.593 2.275 4.14 1.608 7.573l-3.051 15.702a.695.695 0 0 1-.682.56h-7.407z" />
		<path fill="#fff"
			d="M65.31 38.755h-7.291a1.39 1.39 0 0 0-1.364 1.124l-6.557 33.738a1.39 1.39 0 0 0 1.363 1.654h7.291a1.39 1.39 0 0 0 1.364-1.124l3.537-18.205h4.682c2.168 0 2.624.463 2.641.484.132.14.305.795.019 2.264l-2.9 14.927a1.39 1.39 0 0 0 1.364 1.654h7.408a1.39 1.39 0 0 0 1.363-1.124l3.051-15.7c.715-3.686.103-6.45-1.82-8.217-1.836-1.686-4.91-2.505-9.398-2.505h-4.81l1.421-7.315a1.39 1.39 0 0 0-1.364-1.655zm0 1.39-1.743 8.968h6.496c4.087 0 6.907.714 8.457 2.14 1.553 1.426 2.017 3.735 1.398 6.93l-3.052 15.699h-7.407l2.901-14.928c.33-1.698.208-2.856-.365-3.474-.573-.617-1.793-.926-3.658-.926h-5.829l-3.756 19.327H51.46l6.558-33.739h7.292z" />
		<path
			d="M92.136 67.864c2.793 0 4.878-.515 6.198-1.53 1.304-1.006 2.206-2.747 2.679-5.175.44-2.27.273-3.854-.5-4.71-.788-.874-2.493-1.317-5.067-1.317h-4.463l-2.475 12.732zM77.54 83.547a.694.694 0 0 1-.682-.828l6.557-33.738a.695.695 0 0 1 .682-.561H98.23c4.442 0 7.748 1.206 9.826 3.585 2.089 2.39 2.734 5.734 1.917 9.935a15.878 15.878 0 0 1-1.699 4.724 15.838 15.838 0 0 1-3.128 3.92c-1.53 1.432-3.265 2.472-5.147 3.083-1.852.604-4.232.91-7.071.91h-5.723l-1.633 8.408a.695.695 0 0 1-.683.562z" />
		<path fill="#fff"
			d="M91.555 55.826h3.891c3.107 0 4.186.682 4.552 1.089.61.674.724 2.097.333 4.112-.44 2.257-1.254 3.858-2.421 4.756-1.195.92-3.139 1.386-5.773 1.386h-2.786l2.204-11.342zm6.674-8.1H84.096a1.39 1.39 0 0 0-1.363 1.123l-6.558 33.739a1.39 1.39 0 0 0 1.364 1.653h7.35a1.39 1.39 0 0 0 1.363-1.124l1.525-7.846h5.15c2.911 0 5.364-.318 7.286-.944 1.978-.642 3.797-1.731 5.408-3.238a16.52 16.52 0 0 0 3.258-4.086c.832-1.487 1.428-3.147 1.775-4.931.86-4.423.162-7.964-2.076-10.524-2.216-2.537-5.697-3.823-10.35-3.823zM87.666 68.557h4.47c2.964 0 5.17-.557 6.622-1.675 1.45-1.116 2.428-2.98 2.936-5.591.487-2.508.266-4.277-.665-5.308-.93-1.03-2.791-1.546-5.583-1.546h-5.035Zm10.563-19.445c4.251 0 7.354 1.117 9.303 3.348 1.95 2.232 2.537 5.347 1.759 9.346-.32 1.648-.862 3.154-1.624 4.518-.763 1.366-1.76 2.614-2.992 3.747-1.467 1.373-3.097 2.352-4.892 2.935-1.793.584-4.078.875-6.856.875h-6.295l-1.745 8.97h-7.35l6.558-33.739h14.133" />
		<defs>
			<radialGradient id="a" cx="0" cy="0" r="1"
				gradientTransform="matrix(84.04136 0 0 84.04136 38.426 42.169)"
				gradientUnits="userSpaceOnUse">
				<stop stop-color="#AEB2D5" />
				<stop offset=".3" stop-color="#AEB2D5" />
				<stop offset=".75" stop-color="#484C89" />
				<stop offset="1" stop-color="#484C89" />
			</radialGradient>
		</defs>
	</symbol>

	<!-- MySQL -->
	<symbol id="icon-mysql" preserveAspectRatio="xMidYMid" viewBox="0 0 256 252">
		<path fill="#FFF"
			d="M236 194c-14 0-25 1-34 5-3 1-7 1-7 4l3 6c2 3 5 8 9 11l11 8 21 10 11 9 6 4-3-6-5-5c-5-7-11-13-18-18-6-3-18-9-20-15h-1l12-3 18-3 8-2v-2l-9-10c-8-8-18-15-28-22l-18-8c-2-1-6-2-7-4l-7-13-15-30-8-20c-18-30-38-48-68-65-6-4-14-5-22-7l-13-1-8-6C34 5 8-9 1 9c-5 11 7 22 11 28l9 13 3 9c3 8 5 17 9 24l6 10c2 2 4 3 5 6-3 4-3 9-4 13-7 20-4 44 5 59 2 4 9 14 18 10 8-3 6-13 8-22l1-4 8 14c5 9 14 18 22 24 4 3 8 8 13 10l-4-4-9-10c-8-10-14-21-20-32l-7-17-3-6c-3 4-7 7-9 12-3 7-3 17-4 26h-1c-6-1-8-7-10-12-5-12-6-32-1-46 1-4 6-15 4-19-1-3-4-5-6-7l-7-12-10-30-9-13c-3-5-7-8-10-14-1-2-2-5 0-7l2-2c2-2 9 0 11 1 6 3 12 5 17 9l8 6h4c6 1 12 0 17 2 9 3 18 7 25 12 23 14 42 35 54 59 3 4 3 8 5 12l12 26c4 8 7 16 12 23 3 4 14 6 18 8l12 4 18 12c2 2 11 7 12 10Z">
		</path>
		<path fill="#FFF" d="m58 43-7 1 6 7 4 9v-1c3-1 4-4 4-8l-2-4-5-4Z"></path>
	</symbol>

	<!-- Codeigniter -->
	<symbol id="icon-codeigniter" viewBox="-24 0 304 304" version="1.1"
		xmlns="http://www.w3.org/2000/svg" xmlns:xlink="http://www.w3.org/1999/xlink"
		preserveAspectRatio="xMidYMid" class="w-full h-full">
		<g>
			<path
				d="M13.1040062,287.305758 C7.90005751,287.305758 6.38666428,284.276558 6.38666428,279.736378 C6.38666428,278.222985 6.577347,276.516495 6.81147641,274.718285 C7.95074533,266.866501 10.7337476,262.374596 17.4510895,262.374596 C21.9936829,262.374596 24.2094644,264.406936 24.2094644,268.097491 L24.2094644,269.895702 L28.7158522,269.895702 C28.76654,269.895702 28.76654,268.2399 28.76654,267.863362 C28.76654,262.471144 25.5007967,257.356502 17.4583306,257.356502 C6.52907289,257.356502 2.03475359,263.294217 0.378951735,274.933105 C0.142408614,276.494772 -1.77635684e-14,277.95265 -1.77635684e-14,279.50949 C-1.77635684e-14,286.36924 2.69852255,292.608669 12.3485164,292.608669 C19.6813532,292.608669 24.0356776,289.033971 26.5893778,284.633786 L22.2833275,281.734926 C19.4930842,286.135111 16.463884,287.305758 13.1040062,287.305758 L13.1040062,287.305758 Z M42.6743101,265.637925 C33.9198009,265.637925 30.1375246,270.129831 28.8606745,279.070195 C28.7158522,280.11533 28.6217177,281.201497 28.6217177,282.19353 C28.6217177,287.9647 31.3178265,292.555567 38.7906582,292.555567 C47.5451674,292.555567 51.3781315,287.870565 52.6549816,279.070195 C52.7973902,277.935754 52.8915247,276.895447 52.8915247,275.85514 C52.8939384,269.989836 50.103695,265.637925 42.6743101,265.637925 L42.6743101,265.637925 Z M46.3165914,279.072609 C45.3704189,285.555822 43.338079,287.542301 39.5027013,287.542301 C36.4300544,287.542301 34.9166612,286.265451 34.9166612,282.432487 C34.9166612,281.486314 35.0132094,280.351873 35.2014784,279.072609 C36.1476509,272.640084 38.0399959,270.653605 41.9188203,270.653605 C45.042155,270.653605 46.6014086,271.930455 46.6014086,275.80928 C46.6014086,276.755452 46.5048604,277.844033 46.3165914,279.072609 L46.3165914,279.072609 Z M74.8972761,257.827175 L73.432157,266.511687 C73.3380225,267.267176 73.3862966,267.016151 73.6711138,267.72578 C72.3001292,266.685473 69.8381497,265.997567 68.1823479,265.997567 C60.3281508,265.997567 55.9303797,269.552955 54.511121,279.487766 C54.3228519,280.670482 54.2745778,281.667342 54.2745778,282.659375 C54.2745778,289.900491 58.532354,292.599014 64.2552493,292.599014 C66.6713684,292.599014 69.0343859,292.649702 70.8784567,291.090448 L71.3491293,294.032755 L75.8917227,294.032755 L81.1898059,257.827175 L74.8972761,257.827175 L74.8972761,257.827175 Z M70.4029568,286.168903 C68.2764824,287.443339 66.1958684,287.730570 64.9190183,287.73057 C61.465006,287.73057 60.5188335,285.93236 60.5188335,283.047982 C60.5188335,281.959401 60.6612421,280.684964 60.8519248,279.309152 C61.9380922,271.788047 64.3517976,270.460509 67.4751322,270.460509 C69.5074721,270.460509 71.0667258,270.7936 72.5366723,271.599777 L70.4029568,286.168903 L70.4029568,286.168903 Z M95.0058551,265.637925 C86.3454804,265.637925 82.2808007,269.750879 80.9074023,279.070195 C80.76258,280.207051 80.6684455,281.295632 80.6684455,282.335939 C80.6684455,288.722603 83.9341888,292.555567 91.1222033,292.555567 C96.7051037,292.555567 100.871159,290.235996 103.094182,285.97822 L98.3150451,284.037601 C96.9440605,286.118215 95.0999896,287.537474 91.8342463,287.537474 C88.3343736,287.537474 86.9151149,286.596129 86.9151149,283.472794 C86.9151149,282.857299 86.963389,281.961814 87.0575235,281.961814 L104.134489,281.961814 C104.373445,279.548109 104.653435,277.841619 104.653435,276.427188 C104.653435,271.698739 102.857639,265.637925 95.0058551,265.637925 L95.0058551,265.637925 Z M98.2691847,277.136817 L87.8612874,277.136817 C88.9040081,274.723112 90.6515307,270.986696 94.2479517,270.986696 C97.038195,270.986696 98.4115933,272.618361 98.4115933,275.408604 C98.4091796,275.881691 98.3657329,277.136817 98.2691847,277.136817 L98.2691847,277.136817 Z M122.860015,265.068291 L123.427235,260.24088 L110.084272,260.24088 L109.519465,265.068291 L113.019338,265.068291 L109.237062,289.205344 L105.732362,289.205344 L105.167555,294.032755 L118.508104,294.032755 L119.077738,289.205344 L115.575452,289.205344 L119.357728,265.068291 L122.860015,265.068291 Z M149.970753,272.309407 L151.674829,267.481996 L147.086375,267.481996 L143.777185,268.165075 C141.9307,266.984773 139.42286,266.098943 137.059843,266.098943 C130.291813,266.098943 124.523057,269.3671 124.523057,276.796485 C124.523057,278.879513 125.278547,280.561865 126.176446,281.698721 C124.759601,282.45421 123.528611,283.718992 123.528611,285.425482 C123.528611,286.180971 123.811014,286.955771 124.380649,287.662986 C121.539718,289.369476 119.794609,292.195925 119.794609,295.505115 C119.794609,301.894193 126.463677,303.257936 131.573491,303.257936 C138.006015,303.257936 145.671944,301.78799 145.671944,293.603115 C145.671944,290.812872 143.922007,288.633296 138.860467,287.687123 L129.72942,285.980634 C128.689113,285.789951 128.45257,285.459273 128.45257,284.986187 C128.45257,284.276558 128.882209,283.90002 129.589425,283.90002 L130.20492,283.994154 C131.43591,284.276558 132.855168,284.42138 134.320287,284.42138 C140.897634,284.42138 146.762938,281.580449 146.762938,274.201752 C146.762938,273.159031 146.574669,272.454229 146.101583,271.317374 C146.905347,271.696326 147.948068,272.311821 148.370466,272.311821 L149.970753,272.311821 L149.970753,272.309407 Z M136.963295,291.891798 C138.759091,292.224889 139.372173,292.886245 139.372173,294.06896 C139.372173,297.901924 135.256805,298.375011 132.278293,298.375011 C127.735699,298.375011 126.034037,297.288843 126.034037,294.872724 C126.034037,292.743836 126.647118,291.751803 128.068791,290.235996 L136.963295,291.891798 L136.963295,291.891798 Z M135.020262,279.499835 C132.275879,279.499835 130.762486,278.507802 130.762486,276.139957 C130.762486,272.640084 132.797239,270.605331 136.345386,270.605331 C139.183904,270.605331 140.557302,271.788047 140.557302,274.10279 C140.557302,277.605076 138.568409,279.499835 135.020262,279.499835 L135.020262,279.499835 Z M166.777383,265.637925 C164.127134,265.637925 161.764117,266.938913 158.829051,269.253656 L158.404239,267.481996 L153.197877,267.481996 L149.555595,294.032755 L155.848125,294.032755 L158.592508,273.897625 C160.438993,272.763183 162.707876,271.114623 164.648495,271.114623 C167.011512,271.114623 167.865964,272.256305 167.865964,274.431054 C167.865964,274.952414 167.815276,276.494772 167.721142,277.061993 L165.406398,294.032755 L171.698928,294.032755 L174.013671,276.924411 C174.11022,276.123061 174.204354,274.805178 174.204354,274.049688 C174.206768,269.550542 172.075466,265.637925 166.777383,265.637925 L166.777383,265.637925 Z M186.157023,287.380583 L186.205297,286.731296 L188.947266,267.481996 L178.491095,267.481996 L177.832153,272.309407 L182.418193,272.309407 C182.039242,272.309407 181.802698,272.731805 181.756838,273.113171 L179.864493,285.93236 C179.770359,286.550268 179.724498,287.834359 179.724498,288.350892 C179.724498,291.662496 181.520295,294.032755 185.208437,294.032755 L188.425906,294.032755 L189.135535,289.205344 L187.103195,289.205344 C186.391152,289.205344 186.157023,287.947804 186.157023,287.380583 L186.157023,287.380583 Z M190.224116,257.827175 L184.073995,257.827175 C183.695043,257.827175 183.695043,256.434467 183.649183,256.907553 L182.794731,263.709375 C182.746457,264.136601 182.746457,265.068291 183.125409,265.068291 L189.277944,265.068291 C189.656896,265.068291 189.656896,263.414903 189.702756,262.985263 L190.557208,257.735454 C190.605482,257.262368 190.605482,257.827175 190.224116,257.827175 L190.224116,257.827175 Z M203.055374,287.542301 C201.49612,287.542301 200.738217,286.878532 200.738217,285.461687 L200.786491,285.365139 L202.77297,272.309407 L209.963398,272.309407 L212.138147,267.481996 L203.434326,267.481996 L204.899445,256.859279 L198.278651,258.976099 L197.093522,267.481996 L193.262971,267.481996 L192.601616,272.309407 L197.047661,272.309407 C196.622849,274.723112 196.195623,273.156617 196.149763,273.632117 L194.445687,285.080322 C194.351552,285.601682 194.351552,285.980634 194.351552,286.451306 C194.351552,290.945626 197.663156,292.627978 201.640942,292.627978 C205.329084,292.627978 208.31001,291.551466 210.629581,289.608433 L207.694515,285.99753 C206.224569,286.895428 205.232536,287.542301 203.055374,287.542301 L203.055374,287.542301 Z M226.142465,265.637925 C217.484504,265.637925 213.417411,269.750879 212.044012,279.070195 C211.901604,280.207051 211.807469,281.295632 211.807469,282.335939 C211.807469,288.722603 215.070799,292.555567 222.261227,292.555567 C227.844127,292.555567 232.010183,290.235996 234.230792,285.97822 L229.454069,284.037601 C228.083084,286.118215 226.2366,287.537474 222.970856,287.537474 C219.473397,287.537474 218.051725,286.596129 218.051725,283.472794 C218.051725,282.857299 218.102413,281.961814 218.196547,281.961814 L235.273512,281.961814 C235.510056,279.548109 235.794873,277.841619 235.794873,276.427188 C235.794873,271.698739 233.996662,265.637925 226.142465,265.637925 L226.142465,265.637925 Z M229.408208,277.136817 L219.000311,277.136817 C220.040618,274.723112 221.788141,270.986696 225.386975,270.986696 C228.177219,270.986696 229.550617,272.618361 229.550617,275.408604 C229.548203,275.881691 229.502343,277.136817 229.408208,277.136817 L229.408208,277.136817 Z M253.204929,265.637925 C250.933633,265.637925 248.804744,266.938913 246.675856,268.968839 L246.296905,267.481996 L241.09537,267.481996 L237.450675,294.032755 L243.791478,294.032755 L246.581722,273.472813 C248.237524,272.48078 250.129869,271.633569 251.928079,271.633569 C253.064934,271.633569 254.151102,271.452541 255.191409,271.59495 L256,266.108598 C255.049,265.920329 254.102828,265.637925 253.204929,265.637925 L253.204929,265.637925 Z M92.541462,238.809591 C78.2209483,232.62085 64.8200564,216.888319 64.7886782,200.791318 C64.7500589,183.241267 75.872413,168.341464 89.7053582,158.549061 C88.0423153,164.831936 87.1347621,170.578969 91.2549571,176.198075 C95.0855074,181.423747 101.793194,183.962965 108.126757,182.584739 C122.927598,179.345546 123.605849,163.074759 114.832031,153.596138 C106.157174,144.209238 97.7647203,133.605831 101.066669,119.992533 C102.720057,113.168988 106.91025,106.777496 112.217988,102.208352 C108.138826,112.930031 119.731852,123.504474 127.37123,128.771179 C140.622472,137.909467 155.160219,144.815078 167.344604,155.527102 C180.161379,166.784624 189.625517,182.007863 187.713863,199.661704 C185.642904,218.79756 170.43656,232.106731 153.381318,238.826487 C189.422766,230.870914 226.663826,202.898483 227.426556,162.925109 C228.058947,130.040788 205.500457,104.733088 177.554577,90.2436145 L176.094285,89.4470918 C176.861844,91.3080586 177.112869,92.8914493 177.083905,94.3082943 C177.33493,93.2631599 177.503889,92.189061 177.552163,91.0811703 C177.540095,92.459396 177.363894,93.7603832 177.040458,94.9817181 L177.083905,94.3082943 C176.66392,96.0823677 175.959118,97.7309284 175.015359,99.2394943 L175.425689,98.7977862 C169.85003,108.044691 154.75713,110.052894 147.301195,100.477725 C135.314734,85.0758714 147.55222,68.4695788 149.263537,52.160172 C151.406907,31.7185016 138.587718,11.8754302 122.693469,-1.42108547e-14 C131.447978,14.1612091 119.915294,32.8963898 110.687699,43.3694572 C101.740093,53.5239155 90.8591094,62.0008486 80.9822272,71.2260303 C70.3715786,81.1342906 60.1712599,91.5711525 51.4505426,103.200385 C34.009108,126.475745 23.3308756,155.749163 31.1778316,184.788452 C39.0199602,213.806017 64.1562874,232.278104 92.541462,238.809591 L92.541462,238.809591 Z"
				fill="#EE4323">
			</path>
		</g>
	</symbol>

	<!-- Tools -->
	<!-- Git -->
	<symbol id="icon-git" preserveAspectRatio="xMidYMid" viewBox="0 0 256 256">
		<path
			d="M251.17 116.6 139.4 4.82a16.49 16.49 0 0 0-23.31 0l-23.21 23.2 29.44 29.45a19.57 19.57 0 0 1 24.8 24.96l28.37 28.38a19.61 19.61 0 1 1-11.75 11.06L137.28 95.4v69.64a19.62 19.62 0 1 1-16.13-.57V94.2a19.61 19.61 0 0 1-10.65-25.73L81.46 39.44 4.83 116.08a16.49 16.49 0 0 0 0 23.32L116.6 251.17a16.49 16.49 0 0 0 23.32 0l111.25-111.25a16.5 16.5 0 0 0 0-23.33"
			fill="#DE4C36"></path>
	</symbol>

	<!-- Visual Studio Code, VSCode, VS code -->
	<symbol id="icon-vscode" fill="none" viewBox="0 0 100 100">
		<mask id="vscode__a" width="100" height="100" x="0" y="0" mask-type="alpha"
			maskUnits="userSpaceOnUse">
			<path fill="#fff" fill-rule="evenodd"
				d="M70.912 99.317a6.223 6.223 0 0 0 4.96-.19l20.589-9.907A6.25 6.25 0 0 0 100 83.587V16.413a6.25 6.25 0 0 0-3.54-5.632L75.874.874a6.226 6.226 0 0 0-7.104 1.21L29.355 38.04 12.187 25.01a4.162 4.162 0 0 0-5.318.236l-5.506 5.009a4.168 4.168 0 0 0-.004 6.162L16.247 50 1.36 63.583a4.168 4.168 0 0 0 .004 6.162l5.506 5.01a4.162 4.162 0 0 0 5.318.236l17.168-13.032L68.77 97.917a6.217 6.217 0 0 0 2.143 1.4ZM75.015 27.3 45.11 50l29.906 22.701V27.3Z"
				clip-rule="evenodd"></path>
		</mask>
		<g mask="url(#vscode__a)">
			<path fill="#0065A9"
				d="M96.461 10.796 75.857.876a6.23 6.23 0 0 0-7.107 1.207l-67.451 61.5a4.167 4.167 0 0 0 .004 6.162l5.51 5.009a4.167 4.167 0 0 0 5.32.236l81.228-61.62c2.725-2.067 6.639-.124 6.639 3.297v-.24a6.25 6.25 0 0 0-3.539-5.63Z">
			</path>
			<g filter="url(#vscode__b)">
				<path fill="#007ACC"
					d="m96.461 89.204-20.604 9.92a6.229 6.229 0 0 1-7.107-1.207l-67.451-61.5a4.167 4.167 0 0 1 .004-6.162l5.51-5.009a4.167 4.167 0 0 1 5.32-.236l81.228 61.62c2.725 2.067 6.639.124 6.639-3.297v.24a6.25 6.25 0 0 1-3.539 5.63Z">
				</path>
			</g>
			<g filter="url(#vscode__c)">
				<path fill="#1F9CF0"
					d="M75.858 99.126a6.232 6.232 0 0 1-7.108-1.21c2.306 2.307 6.25.674 6.25-2.588V4.672c0-3.262-3.944-4.895-6.25-2.589a6.232 6.232 0 0 1 7.108-1.21l20.6 9.908A6.25 6.25 0 0 1 100 16.413v67.174a6.25 6.25 0 0 1-3.541 5.633l-20.601 9.906Z">
				</path>
			</g>
			<path fill="url(#vscode__d)" fill-rule="evenodd"
				d="M70.851 99.317a6.224 6.224 0 0 0 4.96-.19L96.4 89.22a6.25 6.25 0 0 0 3.54-5.633V16.413a6.25 6.25 0 0 0-3.54-5.632L75.812.874a6.226 6.226 0 0 0-7.104 1.21L29.294 38.04 12.126 25.01a4.162 4.162 0 0 0-5.317.236l-5.507 5.009a4.168 4.168 0 0 0-.004 6.162L16.186 50 1.298 63.583a4.168 4.168 0 0 0 .004 6.162l5.507 5.009a4.162 4.162 0 0 0 5.317.236L29.294 61.96l39.414 35.958a6.218 6.218 0 0 0 2.143 1.4ZM74.954 27.3 45.048 50l29.906 22.701V27.3Z"
				clip-rule="evenodd" opacity=".25" style="mix-blend-mode:overlay"></path>
		</g>
		<defs>
			<filter id="vscode__b" width="116.727" height="92.246" x="-8.394" y="15.829"
				color-interpolation-filters="sRGB" filterUnits="userSpaceOnUse">
				<feFlood flood-opacity="0" result="BackgroundImageFix"></feFlood>
				<feColorMatrix in="SourceAlpha" values="0 0 0 0 0 0 0 0 0 0 0 0 0 0 0 0 0 0 127 0">
				</feColorMatrix>
				<feOffset></feOffset>
				<feGaussianBlur stdDeviation="4.167"></feGaussianBlur>
				<feColorMatrix values="0 0 0 0 0 0 0 0 0 0 0 0 0 0 0 0 0 0 0.25 0">
				</feColorMatrix>
				<feBlend in2="BackgroundImageFix" mode="overlay" result="effect1_dropShadow"></feBlend>
				<feBlend in="SourceGraphic" in2="effect1_dropShadow" result="shape">
				</feBlend>
			</filter>
			<filter id="vscode__c" width="47.917" height="116.151" x="60.417" y="-8.076"
				color-interpolation-filters="sRGB" filterUnits="userSpaceOnUse">
				<feFlood flood-opacity="0" result="BackgroundImageFix"></feFlood>
				<feColorMatrix in="SourceAlpha" values="0 0 0 0 0 0 0 0 0 0 0 0 0 0 0 0 0 0 127 0">
				</feColorMatrix>
				<feOffset></feOffset>
				<feGaussianBlur stdDeviation="4.167"></feGaussianBlur>
				<feColorMatrix values="0 0 0 0 0 0 0 0 0 0 0 0 0 0 0 0 0 0 0.25 0">
				</feColorMatrix>
				<feBlend in2="BackgroundImageFix" mode="overlay" result="effect1_dropShadow"></feBlend>
				<feBlend in="SourceGraphic" in2="effect1_dropShadow" result="shape">
				</feBlend>
			</filter>
			<linearGradient id="vscode__d" x1="49.939" x2="49.939" y1=".258" y2="99.742"
				gradientUnits="userSpaceOnUse">
				<stop stop-color="#fff"></stop>
				<stop offset="1" stop-color="#fff" stop-opacity="0"></stop>
			</linearGradient>
		</defs>
	</symbol>

	<!-- Figma -->
	<symbol id="icon-figma" viewBox="0 0 54 80" fill="none">
		<g clip-path="url(#figma__clip0_912_3)">
			<path
				d="M13.3333 80.0002C20.6933 80.0002 26.6667 74.0268 26.6667 66.6668V53.3335H13.3333C5.97333 53.3335 0 59.3068 0 66.6668C0 74.0268 5.97333 80.0002 13.3333 80.0002Z"
				fill="#0ACF83" />
			<path
				d="M0 39.9998C0 32.6398 5.97333 26.6665 13.3333 26.6665H26.6667V53.3332H13.3333C5.97333 53.3332 0 47.3598 0 39.9998Z"
				fill="#A259FF" />
			<path
				d="M0 13.3333C0 5.97333 5.97333 0 13.3333 0H26.6667V26.6667H13.3333C5.97333 26.6667 0 20.6933 0 13.3333Z"
				fill="#F24E1E" />
			<path
				d="M26.6667 0H40.0001C47.3601 0 53.3334 5.97333 53.3334 13.3333C53.3334 20.6933 47.3601 26.6667 40.0001 26.6667H26.6667V0Z"
				fill="#FF7262" />
			<path
				d="M53.3334 39.9998C53.3334 47.3598 47.3601 53.3332 40.0001 53.3332C32.6401 53.3332 26.6667 47.3598 26.6667 39.9998C26.6667 32.6398 32.6401 26.6665 40.0001 26.6665C47.3601 26.6665 53.3334 32.6398 53.3334 39.9998Z"
				fill="#1ABCFE" />
		</g>
	</symbol>

	<!-- Xampp -->
	<symbol id="icon-xampp" fill="#FB7A24" role="img" viewBox="0 0 24 24"
		xmlns="http://www.w3.org/2000/svg">
		<path
			d="M16.792,11.923c0.113,0.043,0.226,0.079,0.334,0.128c0.45,0.203,0.715,0.553,0.748,1.044 c0.041,0.634,0.044,1.271,0.002,1.905c-0.049,0.732-0.725,1.292-1.483,1.271c-0.735-0.021-1.369-0.62-1.397-1.341 c-0.017-0.441-0.003-0.884-0.006-1.326c-0.001-0.239-0.003-0.242-0.245-0.243c-1.363-0.001-2.726,0.008-4.089-0.003 c-0.888-0.007-1.421,0.482-1.471,1.46c-0.019,0.38-0.1,0.727-0.357,1.018c-0.397,0.451-0.898,0.601-1.472,0.466 c-0.554-0.131-0.867-0.522-1.035-1.048c-0.117-0.367-0.056-0.737,0.012-1.094c0.341-1.797,1.366-3.006,3.125-3.555 c0.357-0.112,0.731-0.166,1.105-0.166c0.94,0.001,1.881,0.001,2.821-0.001c0.128,0,0.257-0.012,0.385-0.021 c0.702-0.051,1.166-0.511,1.22-1.352c0.004-0.064,0-0.129,0.001-0.193c0.011-0.788,0.605-1.396,1.393-1.425 c0.787-0.029,1.438,0.527,1.493,1.318c0.076,1.083-0.265,2.046-0.913,2.907C16.903,11.751,16.819,11.816,16.792,11.923z M8.249,10.436c-0.258-0.008-0.571,0.018-0.882-0.035c-0.536-0.09-0.876-0.39-1.02-0.916C6.19,8.912,6.25,8.388,6.698,7.96 C7.154,7.526,7.694,7.4,8.285,7.645c0.52,0.216,0.859,0.731,0.89,1.293C9.2,9.382,9.178,9.828,9.182,10.272 c0.001,0.116-0.043,0.167-0.161,0.165C8.781,10.434,8.542,10.436,8.249,10.436z M21.682,0H2.318C1.102,0,0.116,0.986,0.116,2.202 v19.317c0,1.37,1.111,2.481,2.481,2.481h18.807c1.37,0,2.481-1.111,2.481-2.481V2.202C23.884,0.986,22.898,0,21.682,0z M20.125,12.473c0.519,0.804,0.733,1.69,0.677,2.657c-0.108,1.886-1.413,3.474-3.25,3.916c-2.585,0.623-4.566-0.923-5.233-2.794 c-0.109-0.304-0.16-0.622-0.224-0.985c-0.068,0.414-0.115,0.789-0.264,1.134c-0.697,1.617-1.884,2.603-3.665,2.799 c-2.104,0.232-4.048-1.067-4.632-3.084c-0.25-0.863-0.175-1.747-0.068-2.625c0.08-0.653,0.321-1.268,0.632-1.848 c0.057-0.106,0.057-0.184-0.01-0.285c-0.561-0.845-0.779-1.777-0.7-2.784C3.43,8.035,3.56,7.52,3.805,7.038 C4.52,5.626,6.09,4.427,8.193,4.626c1.849,0.175,3.562,1.77,3.83,3.564c0.013,0.09,0.039,0.178,0.068,0.311 c0.044-0.241,0.076-0.439,0.118-0.636c0.344-1.63,1.94-3.335,4.201-3.357c2.292-0.021,3.99,1.776,4.31,3.446 c0.17,0.888,0.089,1.776-0.103,2.663c-0.112,0.517-0.31,1.008-0.524,1.492C20.034,12.245,20.043,12.345,20.125,12.473z" />
	</symbol>

	<!-- Vite -->
	<!-- <symbol id="icon-vite" fill="none" viewBox="0 0 48 46">
		<path fill="#863bff"
			d="M25.946 44.938c-.664.845-2.021.375-2.021-.698V33.937a2.26 2.26 0 0 0-2.262-2.262H10.287c-.92 0-1.456-1.04-.92-1.788l7.48-10.471c1.07-1.497 0-3.578-1.842-3.578H1.237c-.92 0-1.456-1.04-.92-1.788L10.013.474c.214-.297.556-.474.92-.474h28.894c.92 0 1.456 1.04.92 1.788l-7.48 10.471c-1.07 1.498 0 3.579 1.842 3.579h11.377c.943 0 1.473 1.088.89 1.83L25.947 44.94z"
			style="fill:#863bff;fill:color(display-p3 .5252 .23 1);fill-opacity:1" />
		<mask id="vite__mask0_2002_17158" width="48" height="46" x="0" y="0"
			maskUnits="userSpaceOnUse"
			style="mask-type:alpha">
			<path fill="#000"
				d="M25.842 44.938c-.664.844-2.021.375-2.021-.698V33.937a2.26 2.26 0 0 0-2.262-2.262H10.183c-.92 0-1.456-1.04-.92-1.788l7.48-10.471c1.07-1.498 0-3.579-1.842-3.579H1.133c-.92 0-1.456-1.04-.92-1.787L9.91.473c.214-.297.556-.474.92-.474h28.894c.92 0 1.456 1.04.92 1.788l-7.48 10.471c-1.07 1.498 0 3.578 1.842 3.578h11.377c.943 0 1.473 1.088.89 1.832L25.843 44.94z"
				style="fill:#000;fill-opacity:1" />
		</mask>
		<g mask="url(#vite__mask0_2002_17158)">
			<g filter="url(#vite__filter0_f_2002_17158)">
				<ellipse cx="5.508" cy="14.704" fill="#ede6ff" rx="5.508" ry="14.704"
					style="fill:#ede6ff;fill:color(display-p3 .9275 .9033 1);fill-opacity:1"
					transform="matrix(.00324 1 1 -.00324 -4.47 31.516)" />
			</g>
			<g filter="url(#vite__filter1_f_2002_17158)">
				<ellipse cx="10.399" cy="29.851" fill="#ede6ff" rx="10.399" ry="29.851"
					style="fill:#ede6ff;fill:color(display-p3 .9275 .9033 1);fill-opacity:1"
					transform="matrix(.00324 1 1 -.00324 -39.328 7.883)" />
			</g>
			<g filter="url(#vite__filter2_f_2002_17158)">
				<ellipse cx="5.508" cy="30.487" fill="#7e14ff" rx="5.508" ry="30.487"
					style="fill:#7e14ff;fill:color(display-p3 .4922 .0767 1);fill-opacity:1"
					transform="rotate(89.814 -25.913 -14.639)scale(1 -1)" />
			</g>
			<g filter="url(#vite__filter3_f_2002_17158)">
				<ellipse cx="5.508" cy="30.599" fill="#7e14ff" rx="5.508" ry="30.599"
					style="fill:#7e14ff;fill:color(display-p3 .4922 .0767 1);fill-opacity:1"
					transform="rotate(89.814 -32.644 -3.334)scale(1 -1)" />
			</g>
			<g filter="url(#vite__filter4_f_2002_17158)">
				<ellipse cx="5.508" cy="30.599" fill="#7e14ff" rx="5.508" ry="30.599"
					style="fill:#7e14ff;fill:color(display-p3 .4922 .0767 1);fill-opacity:1"
					transform="rotate(89.814 -32.454 -1.99)scale(1 -1)" />
			</g>
			<g filter="url(#vite__filter5_f_2002_17158)">
				<ellipse cx="14.072" cy="22.078" fill="#ede6ff" rx="14.072" ry="22.078"
					style="fill:#ede6ff;fill:color(display-p3 .9275 .9033 1);fill-opacity:1"
					transform="rotate(93.35 24.506 48.493)scale(-1 1)" />
			</g>
			<g filter="url(#vite__filter6_f_2002_17158)">
				<ellipse cx="3.47" cy="21.501" fill="#7e14ff" rx="3.47" ry="21.501"
					style="fill:#7e14ff;fill:color(display-p3 .4922 .0767 1);fill-opacity:1"
					transform="rotate(89.009 28.708 47.59)scale(-1 1)" />
			</g>
			<g filter="url(#vite__filter7_f_2002_17158)">
				<ellipse cx="3.47" cy="21.501" fill="#7e14ff" rx="3.47" ry="21.501"
					style="fill:#7e14ff;fill:color(display-p3 .4922 .0767 1);fill-opacity:1"
					transform="rotate(89.009 28.708 47.59)scale(-1 1)" />
			</g>
			<g filter="url(#vite__filter8_f_2002_17158)">
				<ellipse cx=".387" cy="8.972" fill="#7e14ff" rx="4.407" ry="29.108"
					style="fill:#7e14ff;fill:color(display-p3 .4922 .0767 1);fill-opacity:1"
					transform="rotate(39.51 .387 8.972)" />
			</g>
			<g filter="url(#vite__filter9_f_2002_17158)">
				<ellipse cx="47.523" cy="-6.092" fill="#7e14ff" rx="4.407" ry="29.108"
					style="fill:#7e14ff;fill:color(display-p3 .4922 .0767 1);fill-opacity:1"
					transform="rotate(37.892 47.523 -6.092)" />
			</g>
			<g filter="url(#vite__filter10_f_2002_17158)">
				<ellipse cx="41.412" cy="6.333" fill="#47bfff" rx="5.971" ry="9.665"
					style="fill:#47bfff;fill:color(display-p3 .2799 .748 1);fill-opacity:1"
					transform="rotate(37.892 41.412 6.333)" />
			</g>
			<g filter="url(#vite__filter11_f_2002_17158)">
				<ellipse cx="-1.879" cy="38.332" fill="#7e14ff" rx="4.407" ry="29.108"
					style="fill:#7e14ff;fill:color(display-p3 .4922 .0767 1);fill-opacity:1"
					transform="rotate(37.892 -1.88 38.332)" />
			</g>
			<g filter="url(#vite__filter12_f_2002_17158)">
				<ellipse cx="-1.879" cy="38.332" fill="#7e14ff" rx="4.407" ry="29.108"
					style="fill:#7e14ff;fill:color(display-p3 .4922 .0767 1);fill-opacity:1"
					transform="rotate(37.892 -1.88 38.332)" />
			</g>
			<g filter="url(#vite__filter13_f_2002_17158)">
				<ellipse cx="35.651" cy="29.907" fill="#7e14ff" rx="4.407" ry="29.108"
					style="fill:#7e14ff;fill:color(display-p3 .4922 .0767 1);fill-opacity:1"
					transform="rotate(37.892 35.651 29.907)" />
			</g>
			<g filter="url(#vite__filter14_f_2002_17158)">
				<ellipse cx="38.418" cy="32.4" fill="#47bfff" rx="5.971" ry="15.297"
					style="fill:#47bfff;fill:color(display-p3 .2799 .748 1);fill-opacity:1"
					transform="rotate(37.892 38.418 32.4)" />
			</g>
		</g>
		<defs>
			<filter id="vite__filter0_f_2002_17158" width="60.045" height="41.654" x="-19.77"
				y="16.149"
				color-interpolation-filters="sRGB" filterUnits="userSpaceOnUse">
				<feFlood flood-opacity="0" result="BackgroundImageFix" />
				<feBlend in="SourceGraphic" in2="BackgroundImageFix" result="shape" />
				<feGaussianBlur result="effect1_foregroundBlur_2002_17158" stdDeviation="7.659" />
			</filter>
			<filter id="vite__filter1_f_2002_17158" width="90.34" height="51.437" x="-54.613"
				y="-7.533"
				color-interpolation-filters="sRGB" filterUnits="userSpaceOnUse">
				<feFlood flood-opacity="0" result="BackgroundImageFix" />
				<feBlend in="SourceGraphic" in2="BackgroundImageFix" result="shape" />
				<feGaussianBlur result="effect1_foregroundBlur_2002_17158" stdDeviation="7.659" />
			</filter>
			<filter id="vite__filter2_f_2002_17158" width="79.355" height="29.4" x="-49.64" y="2.03"
				color-interpolation-filters="sRGB" filterUnits="userSpaceOnUse">
				<feFlood flood-opacity="0" result="BackgroundImageFix" />
				<feBlend in="SourceGraphic" in2="BackgroundImageFix" result="shape" />
				<feGaussianBlur result="effect1_foregroundBlur_2002_17158" stdDeviation="4.596" />
			</filter>
			<filter id="vite__filter3_f_2002_17158" width="79.579" height="29.4" x="-45.045"
				y="20.029"
				color-interpolation-filters="sRGB" filterUnits="userSpaceOnUse">
				<feFlood flood-opacity="0" result="BackgroundImageFix" />
				<feBlend in="SourceGraphic" in2="BackgroundImageFix" result="shape" />
				<feGaussianBlur result="effect1_foregroundBlur_2002_17158" stdDeviation="4.596" />
			</filter>
			<filter id="vite__filter4_f_2002_17158" width="79.579" height="29.4" x="-43.513"
				y="21.178"
				color-interpolation-filters="sRGB" filterUnits="userSpaceOnUse">
				<feFlood flood-opacity="0" result="BackgroundImageFix" />
				<feBlend in="SourceGraphic" in2="BackgroundImageFix" result="shape" />
				<feGaussianBlur result="effect1_foregroundBlur_2002_17158" stdDeviation="4.596" />
			</filter>
			<filter id="vite__filter5_f_2002_17158" width="74.749" height="58.852" x="15.756"
				y="-17.901"
				color-interpolation-filters="sRGB" filterUnits="userSpaceOnUse">
				<feFlood flood-opacity="0" result="BackgroundImageFix" />
				<feBlend in="SourceGraphic" in2="BackgroundImageFix" result="shape" />
				<feGaussianBlur result="effect1_foregroundBlur_2002_17158" stdDeviation="7.659" />
			</filter>
			<filter id="vite__filter6_f_2002_17158" width="61.377" height="25.362" x="23.548"
				y="2.284"
				color-interpolation-filters="sRGB" filterUnits="userSpaceOnUse">
				<feFlood flood-opacity="0" result="BackgroundImageFix" />
				<feBlend in="SourceGraphic" in2="BackgroundImageFix" result="shape" />
				<feGaussianBlur result="effect1_foregroundBlur_2002_17158" stdDeviation="4.596" />
			</filter>
			<filter id="vite__filter7_f_2002_17158" width="61.377" height="25.362" x="23.548"
				y="2.284"
				color-interpolation-filters="sRGB" filterUnits="userSpaceOnUse">
				<feFlood flood-opacity="0" result="BackgroundImageFix" />
				<feBlend in="SourceGraphic" in2="BackgroundImageFix" result="shape" />
				<feGaussianBlur result="effect1_foregroundBlur_2002_17158" stdDeviation="4.596" />
			</filter>
			<filter id="vite__filter8_f_2002_17158" width="56.045" height="63.649" x="-27.636"
				y="-22.853"
				color-interpolation-filters="sRGB" filterUnits="userSpaceOnUse">
				<feFlood flood-opacity="0" result="BackgroundImageFix" />
				<feBlend in="SourceGraphic" in2="BackgroundImageFix" result="shape" />
				<feGaussianBlur result="effect1_foregroundBlur_2002_17158" stdDeviation="4.596" />
			</filter>
			<filter id="vite__filter9_f_2002_17158" width="54.814" height="64.646" x="20.116"
				y="-38.415"
				color-interpolation-filters="sRGB" filterUnits="userSpaceOnUse">
				<feFlood flood-opacity="0" result="BackgroundImageFix" />
				<feBlend in="SourceGraphic" in2="BackgroundImageFix" result="shape" />
				<feGaussianBlur result="effect1_foregroundBlur_2002_17158" stdDeviation="4.596" />
			</filter>
			<filter id="vite__filter10_f_2002_17158" width="33.541" height="35.313" x="24.641"
				y="-11.323"
				color-interpolation-filters="sRGB" filterUnits="userSpaceOnUse">
				<feFlood flood-opacity="0" result="BackgroundImageFix" />
				<feBlend in="SourceGraphic" in2="BackgroundImageFix" result="shape" />
				<feGaussianBlur result="effect1_foregroundBlur_2002_17158" stdDeviation="4.596" />
			</filter>
			<filter id="vite__filter11_f_2002_17158" width="54.814" height="64.646" x="-29.286"
				y="6.009"
				color-interpolation-filters="sRGB" filterUnits="userSpaceOnUse">
				<feFlood flood-opacity="0" result="BackgroundImageFix" />
				<feBlend in="SourceGraphic" in2="BackgroundImageFix" result="shape" />
				<feGaussianBlur result="effect1_foregroundBlur_2002_17158" stdDeviation="4.596" />
			</filter>
			<filter id="vite__filter12_f_2002_17158" width="54.814" height="64.646" x="-29.286"
				y="6.009"
				color-interpolation-filters="sRGB" filterUnits="userSpaceOnUse">
				<feFlood flood-opacity="0" result="BackgroundImageFix" />
				<feBlend in="SourceGraphic" in2="BackgroundImageFix" result="shape" />
				<feGaussianBlur result="effect1_foregroundBlur_2002_17158" stdDeviation="4.596" />
			</filter>
			<filter id="vite__filter13_f_2002_17158" width="54.814" height="64.646" x="8.244"
				y="-2.416"
				color-interpolation-filters="sRGB" filterUnits="userSpaceOnUse">
				<feFlood flood-opacity="0" result="BackgroundImageFix" />
				<feBlend in="SourceGraphic" in2="BackgroundImageFix" result="shape" />
				<feGaussianBlur result="effect1_foregroundBlur_2002_17158" stdDeviation="4.596" />
			</filter>
			<filter id="vite__filter14_f_2002_17158" width="39.409" height="43.623" x="18.713"
				y="10.588"
				color-interpolation-filters="sRGB" filterUnits="userSpaceOnUse">
				<feFlood flood-opacity="0" result="BackgroundImageFix" />
				<feBlend in="SourceGraphic" in2="BackgroundImageFix" result="shape" />
				<feGaussianBlur result="effect1_foregroundBlur_2002_17158" stdDeviation="4.596" />
			</filter>
		</defs>
	</symbol> -->

</svg>